<?xml version="1.0" encoding="UTF-8"?>
<svg id="Layer_1" data-name="Layer 1" xmlns="http://www.w3.org/2000/svg" xmlns:xlink="http://www.w3.org/1999/xlink" viewBox="0 0 500 270.35">
  <defs>
    <style>
      .cls-1 {
        fill: #010101;
      }

      .cls-2 {
        fill: #23432a;
      }

      .cls-3 {
        fill: #921b31;
      }

      .cls-4 {
        fill: none;
      }

      .cls-5 {
        fill: #b17f46;
      }

      .cls-6 {
        fill: #763121;
      }

      .cls-7 {
        fill: #a55d37;
      }

      .cls-8 {
        fill: #63151a;
      }

      .cls-9 {
        fill: #f3a952;
      }

      .cls-10 {
        fill: #a79e5d;
      }

      .cls-11 {
        clip-path: url(#clippath);
      }

      .cls-12 {
        fill: #de3230;
      }

      .cls-13 {
        fill: #ea532f;
      }
    </style>
    <clipPath id="clippath">
      <path class="cls-4" d="M140.42,95.17c.14.51.59,1.13,1.34,1.84l5.27,6.97,1.69,2.38,3.4,4.86c.15.21.44.26.66.11.04-.03.08-.06.11-.1,1.75-2.29,2.9-3.73,3.46-4.34.79-.86,1.54-1.81,2.23-2.85,1.76-2.65,3.84-5.53,6.25-8.65.93-1.2,3.4-4.54,7.4-10.03.95-1.31,2.16-3.28,2.29-4.48.62-5.5,1.76-10.9,2.58-16.36.03-.18-.1-.34-.27-.37-.07-.01-.15,0-.22.04-1.7,1.06-3.31,1.91-4.82,2.56-4.83,2.07-9.38,3.26-13.13-1.4-1.4-1.74-2.73-3.8-4.01-6.19-3.62-6.81-6.44-12.67-9.42-19.67-1.11-2.6-2.26-5.18-3.46-7.73l-.34-1.02c-.06-.18-.25-.28-.44-.23-.1.03-.18.11-.22.2-4.37,10.59-9.17,20.68-14.37,30.27-1.79,3.3-4.65,7.63-9,7.49-4.07-.14-8.62-2.4-12.57-4.36-.08-.04-.18,0-.22.07-.02.03-.02.07-.01.1l2.29,14.61c.04.24.25.42.49.42h20.58c.4,0,.79.19,1.03.52l11.44,15.32ZM154.73,122.05l-1.76,2.39c-.14.19-.41.23-.6.09-.04-.03-.07-.06-.09-.09l-9.82-13.36-1.22-1.78-15.92-21.24c-.35-.47-.91-.75-1.5-.75l-15.26.05h-13.4c-.06,0-.11.05-.11.11,0,.02,0,.04.02.06,6.11,8.1,12.19,16.25,18.24,24.46,7.12,9.66,13.01,17.57,17.67,23.73,2.69,3.55,4.89,6.74,6.62,9.55l-17.74,23.96c-.13.35-.29.62-.47.82l-15.77,21.25-10.77,14.7c-.09.13-.06.3.07.39.05.03.1.05.16.05,2.87.01,6.03-.31,8.68-.88,9.3-2.01,18.62-5.43,27.92-9.14.38-.15.71-.4.95-.72l13-17.31,8.46-11.29c.18-.25.53-.3.77-.12.05.03.09.08.12.12l3.61,4.95,1.64,2.14,23.27,31.66c.13.17.33.28.55.28h29.63c.11,0,.2-.09.2-.21,0-.04-.01-.08-.04-.12l-35.76-48.43-.58-.73-7.35-10.37c-.15-.23-.36-.45-.64-.67-.22-.21-.38-.41-.46-.62-.08-.21-.03-.44.16-.7,4.87-6.55,9.72-13.12,14.56-19.69l27.44-37.09c.07-.09.05-.21-.03-.28-.04-.03-.08-.04-.13-.04h-28.21c-.43,0-.84.21-1.1.56l-25,34.28ZM47.37,114.54c2.92,6.41,5.71,12.87,8.38,19.39,1.32,3.24,2.41,6.47,3.25,9.71.49,1.85.63,3.85.42,6-.02.14-.05.27-.09.41-.65,1.97-2.28,3.63-4.89,4.97-2.25,1.15-4.33,2.14-6.24,2.96-.16.07-.24.26-.17.42.02.05.06.1.11.13,2.6,1.89,5.28,3.76,8.04,5.6,13.32,8.88,22.73,15.21,28.25,18.99,2.62,1.8,6.02,4.14,6.23,6.56.23,2.71-.32,5.26-1.64,7.65-.05.08-.02.2.06.25l.12.09s.11.02.14-.03l23.39-31.78,1.23-1.68,13.98-18.89c.11-.14.11-.34,0-.48l-18.12-24.53c-.15-.2-.44-.25-.64-.1-.04.03-.08.07-.11.12-.65.98-1.47,1.24-2.44.8-1.5-.68-3.71-2.05-6.65-4.12-4.85-3.42-11.23-8.1-19.13-14.04-.15-.11-.36-.09-.47.06-.05.06-.07.14-.07.22.05,2.41-.07,4.77-.37,7.06-.33,2.54-1.76,3.95-4.3,4.22-2.33.25-4.91.29-7.74.12-5.04-.31-11.79-.92-20.24-1.83-.37-.04-.71.23-.75.59-.03.24.13.63.47,1.17ZM182.24,152.43c-.03.11.1.37.39.79l1.29,1.76,16.11,21.84c.2.28.59.34.87.14l27.8-19.48c.15-.1.19-.31.08-.46-.03-.05-.08-.09-.14-.12l-5.01-2.3c-3.49-1.74-6.93-4.02-6.27-8.51.25-1.76.97-4.23,2.16-7.43,2.1-5.63,4.73-11.78,7.91-18.46.23-.48.48-1.17.74-2.07.21-.19.24-.4.09-.65-.07-.12-.2-.18-.34-.17-4.15.46-8.29.97-12.42,1.53-2.58.35-6.44.5-11.56.47-2.24-.18-4.92-.11-5.7-2.76-.09-.29-.39-.45-.68-.37-.11.03-.21.1-.28.2l-20.26,27.9c-.2.27-.26.63-.16.95.23.77.79,1.51,1.67,2.23.05.04.09.08.13.14l3.45,5.05s.07.04.1.02c.01,0,.02-.02.02-.03.02-.06.03-.13.02-.22Z"/>
    </clipPath>
  </defs>
  <g>
    <g>
      <g class="cls-11">
        <g>
          <path class="cls-4" d="M141.76,31.77c-.31.57-.47,1.12-.47,1.66-.04,10.61.12,21.22.47,31.82" vector-effect="non-scaling-stroke"/>
          <path class="cls-4" d="M141.76,65.24l-.42-5.64s-.04-.08-.09-.08h-.19c-.09,0-.16.07-.16.16l-.06,23.54" vector-effect="non-scaling-stroke"/>
          <path class="cls-4" d="M140.84,83.22c.02.21.01.38-.02.49-.04.15-.2.23-.34.19-.03,0-.06-.02-.09-.04-4.52-3.32-8.07-7.47-10.65-12.46-.03-.06-.11-.08-.17-.05,0,0,0,0,0,0l-.16.11c-.06.04-.09.12-.06.19,2.48,5.75,6.12,10.58,10.93,14.47.14.12.23.28.25.47.35,2.85.31,5.71-.11,8.57" vector-effect="non-scaling-stroke"/>
          <path class="cls-4" d="M148.72,106.36c6.59-6.74,12.02-14.27,16.29-22.57.93-1.82,1.91-3.66,2.93-5.51.07-.13.02-.3-.11-.37,0,0,0,0,0,0h-.01c-.14-.07-.3-.02-.37.12,0,0,0,0,0,0-4.83,10.2-11.63,18.86-20.41,25.96" vector-effect="non-scaling-stroke"/>
          <path class="cls-4" d="M141.76,97.01l.04-17.66" vector-effect="non-scaling-stroke"/>
          <path class="cls-4" d="M141.8,79.35l-.05-14.11" vector-effect="non-scaling-stroke"/>
          <path class="cls-4" d="M141.8,79.35c-.08-.18-.18-.3-.31-.35-.2-.07-.41.03-.48.22-.01.04-.02.08-.02.12-.04,1.26-.09,2.55-.15,3.88" vector-effect="non-scaling-stroke"/>
          <path class="cls-4" d="M181.75,124.62c-2.9-.94-5.86-1.46-8.78-2.33-4.6-1.37-8.89-3.53-13.34-5.23-.42-.16-.89,0-1.11.39-.97,1.67-2.24,3.21-3.79,4.6" vector-effect="non-scaling-stroke"/>
          <path class="cls-4" d="M167.49,145.62c-.28.06-.51.19-.68.4-.08.1-.13.21-.14.34-.06.77-.25,2.34-.58,4.71-.59,4.18-.81,8.38-.68,12.58.02.58-.23,1.13-.67,1.51l-8.15,6.9" vector-effect="non-scaling-stroke"/>
          <path class="cls-4" d="M168.12,146.28c-.02,1.51-.09,3.01-.22,4.49-.34,3.91-.05,7.16.2,10.76.02.26.24.46.51.44.1,0,.19-.04.27-.1l6.59-5.22" vector-effect="non-scaling-stroke"/>
          <path class="cls-4" d="M176.06,157.39c-.12.77-.49,1.62-1.1,2.53-.14.21-.34.39-.56.51l-1.28.7c-.17.09-.33.21-.48.34l-11.03,9.68s-.07.07-.11.11c-.96,1.21-2.05,2.19-3.28,2.95" vector-effect="non-scaling-stroke"/>
          <path class="cls-4" d="M142.45,111.07c.44,20.81.72,41.52.83,62.12.01,1.57.35,3.43.33,5.19" vector-effect="non-scaling-stroke"/>
          <path class="cls-4" d="M103.61,191.3c2.3-1.84,4.04-3.61,7.43-3.51,7.01.21,14.6.03,22.75-.55.59-.04.97-.44,1.16-1.2.04-.18,0-.36-.13-.49-.62-.64-1.89-1.86-2.8-2.53-3.97-2.92-7.49-6.11-10.55-9.58-.18-.2-.85-.78-2.03-1.75-.14-.12-.22-.3-.19-.49l.14-1.14" vector-effect="non-scaling-stroke"/>
          <path class="cls-4" d="M119.85,169.23c.98-.15,2.06.34,3.26,1.47" vector-effect="non-scaling-stroke"/>
          <path class="cls-4" d="M141.23,109.29c-.55.09-.89.28-1.04.56-.04.08-.06.16-.06.25l-.12,15.75c0,.19-.15.34-.34.34-.08,0-.16-.03-.22-.08-6.17-4.99-12.46-10.66-17.31-17.43-.07-.1-.75-.96-2.04-2.57-.68-.86-1.29-1.76-1.84-2.72" vector-effect="non-scaling-stroke"/>
          <path class="cls-4" d="M108.55,87.35c.53,0,1,.11,1.43.32.17.08.3.23.35.41.43,1.56.76,2.53,1,2.92,2.41,4.07,4.72,8.2,6.93,12.39" vector-effect="non-scaling-stroke"/>
          <path class="cls-4" d="M118.25,103.39l-3.17-4.75s-.05-.04-.08-.02c0,0,0,0,0,0l-.15.11s-.05.08-.02.12c1.92,3.42,4.08,7.17,6.46,11.24,2.77,4.73,6.9,9.82,12.4,15.27,2.5,2.48,4.4,4.27,5.7,5.37.35.3.53.85.52,1.66-.03,7.93-.5,14.97-.44,21.98.09,8.77-.14,18.22-.67,28.36-.01.29-.26.52-.55.51-.12,0-.23-.05-.32-.12l-14.83-12.44" vector-effect="non-scaling-stroke"/>
          <path class="cls-4" d="M123.11,170.7c-.26-1.98.31-3.92,1.73-5.8,2.96-3.93,5.36-7.04,7.19-9.34,1.8-2.27,4.21-5.86,4.76-7.77.35-1.22.62-2.06.81-2.52" vector-effect="non-scaling-stroke"/>
          <path class="cls-4" d="M113.94,164.19c-.58-.88-.87-1.51-.87-1.9.06-11.61-2.56-22.57-7.85-32.86-.02-.04-.06-.05-.1-.04,0,0,0,0,0,0-.04.02-.05.06-.04.09,0,0,0,0,0,0,2.72,5.97,4.45,11.94,5.18,17.91.51,4.09.48,8.32-.07,12.68-.02.15-.15.26-.3.25-.05,0-.1-.03-.14-.06l-22.09-16.62" vector-effect="non-scaling-stroke"/>
          <path class="cls-4" d="M87.67,143.65l-5.46-4.46c-.22-.17-.36-.42-.41-.7-.66-3.87-1.15-6.17-1.46-6.9-.57-1.3-1.09-2.7-1.57-4.19-.43-1.32-1.81-3.88-4.14-7.69-.06-.09-.18-.12-.28-.07,0,0,0,0,0,0h0c-.07.04-.09.13-.05.2,2.76,5.16,4.45,10.7,5.04,16.59.02.21-.13.4-.35.43-.09,0-.18-.01-.26-.07l-5.72-3.85c-.05-.04-.1-.08-.14-.13-.37-.51-.85-.99-1.44-1.41-4.87-3.5-10-7.33-15.4-11.5-2.45-1.9-5.63-3.74-7.79-5.96-.05-.05-.18-.11-.39-.2-.1-.04-.19-.1-.28-.18-.07-.07-.19-.06-.26,0-.03.03-.04.07-.05.11-.02.26.02.55.1.86" vector-effect="non-scaling-stroke"/>
          <path class="cls-4" d="M87.67,143.65l-1.84-1.04c-.15-.08-.34-.02-.42.13-.06.11-.05.24.03.34,1,1.23,2.28,2.47,3.84,3.71,1.98,1.57,4.59,3.59,7.84,6.07.3.22.35.65.13.94-.02.02-.04.05-.06.07-.22.22-.58.41-1.08.59-7.08,2.48-14.11,3.73-21.67,4.38t0,0c3.95.68,7.88.66,11.79-.06,5.65-1.04,9.92-2,12.79-2.87.75-.23,1.47-.03,2.16.61,3.33,3.11,6.67,5.92,10.02,8.42.19.14.31.37.31.61v.25c0,.2.16.36.36.36.04,0,.08,0,.12-.02l.72-.25" vector-effect="non-scaling-stroke"/>
          <path class="cls-4" d="M203.93,119.31l4.97.64M208.9,119.95c-3.09,1.23-4.62,3.15-6.48,6.39" vector-effect="non-scaling-stroke"/>
          <path class="cls-4" d="M202.42,126.34l1.13-2.58c.05-.11,0-.25-.11-.3-.09-.04-.21-.02-.27.06-.53.62-.98,1.36-1.34,2.22-.31.71-.63,1.42-.97,2.11-1.85,3.72-2.95,7.66-3.32,11.8-.05.52-.32,1-.74,1.31-5,3.61-9.65,7.01-13.95,10.22-.5.37-.7.79-.61,1.25" vector-effect="non-scaling-stroke"/>
          <path class="cls-4" d="M228.17,118.13c-.15-.2-.35-.29-.6-.28-.08,0-.17.03-.24.08-2.3,1.65-4.54,3.45-6.72,5.41-4.24,3.81-9.43,6.63-13.98,10.24" vector-effect="non-scaling-stroke"/>
          <path class="cls-4" d="M206.63,133.58l-6.89,5.11c-.09.07-.23.05-.3-.04-.03-.04-.05-.09-.04-.14.15-4.28,1.16-8.34,3.02-12.18" vector-effect="non-scaling-stroke"/>
          <path class="cls-4" d="M223.63,154.6c-5.91,2.63-11.88,3.95-17.9,3.98-6.6.02-13.31-1.25-20.13-3.83-.03-.01-.06-.03-.09-.05l-1.23-.81c-.11-.07-.25-.04-.33.07-.02.04-.04.08-.04.13v.89" vector-effect="non-scaling-stroke"/>
          <path class="cls-4" d="M182.63,153.22c3.16-1.98,6.19-4.23,9.07-6.75,1.39-1.22,2.86-2.43,4.41-3.63,3.77-2.92,6.98-5.74,10.86-8.85.09-.07.1-.2.03-.29-.03-.04-.08-.06-.13-.07l-.25-.04" vector-effect="non-scaling-stroke"/>
        </g>
      </g>
      <path class="cls-13" d="M141.76,31.77c-.31.57-.47,1.12-.47,1.66-.04,10.61.12,21.22.47,31.82l-.42-5.64s-.04-.08-.09-.08h-.19c-.09,0-.16.07-.16.16l-.06,23.54c.02.21.01.38-.02.49-.04.15-.2.23-.34.19-.03,0-.06-.02-.09-.04-4.52-3.32-8.07-7.47-10.65-12.46-.03-.06-.11-.08-.17-.05,0,0,0,0,0,0l-.16.11c-.06.04-.09.12-.06.19,2.48,5.75,6.12,10.58,10.93,14.47.14.12.23.28.25.47.35,2.85.31,5.71-.11,8.57l-11.44-15.32c-.24-.33-.63-.52-1.03-.52h-20.58c-.25,0-.46-.18-.49-.42l-2.29-14.61c-.02-.09.04-.18.13-.19.03,0,.07,0,.1.01,3.94,1.96,8.49,4.22,12.57,4.36,4.35.14,7.21-4.19,9-7.49,5.21-9.59,10-19.68,14.37-30.27.07-.18.27-.26.45-.19.1.04.17.12.2.22l.34,1.02Z"/>
      <path class="cls-9" d="M148.72,106.36c6.59-6.74,12.02-14.27,16.29-22.57.93-1.82,1.91-3.66,2.93-5.51.07-.13.02-.3-.11-.37,0,0,0,0,0,0h-.01c-.14-.07-.3-.02-.37.12,0,0,0,0,0,0-4.83,10.2-11.63,18.86-20.41,25.96l-5.27-6.97.04-17.66-.05-14.11c-.35-10.6-.5-21.21-.47-31.82,0-.53.16-1.09.47-1.66,1.2,2.55,2.36,5.13,3.46,7.73,2.97,7,5.8,12.86,9.42,19.67,1.27,2.39,2.61,4.45,4.01,6.19,3.75,4.66,8.3,3.46,13.13,1.4,1.52-.65,3.12-1.5,4.82-2.56.15-.09.35-.04.45.11.04.06.05.14.04.22-.82,5.47-1.96,10.87-2.58,16.36-.14,1.2-1.34,3.18-2.29,4.48-4,5.49-6.47,8.83-7.4,10.03-2.41,3.11-4.49,6-6.25,8.65-.69,1.04-1.43,1.99-2.23,2.85-.56.61-1.71,2.06-3.46,4.34-.16.21-.46.25-.67.09-.04-.03-.07-.06-.1-.1l-3.4-4.86Z"/>
      <path class="cls-7" d="M141.76,65.24l.05,14.11c-.08-.18-.18-.3-.31-.35-.2-.07-.41.03-.48.22-.01.04-.02.08-.02.12-.04,1.26-.09,2.55-.15,3.88l.06-23.54c0-.09.07-.16.16-.16h.19s.09.04.09.08l.42,5.64Z"/>
      <path class="cls-8" d="M140.84,83.22c.05-1.33.1-2.63.15-3.88,0-.21.18-.37.39-.36.04,0,.08,0,.12.02.13.05.23.17.31.35l-.04,17.66c-.75-.72-1.2-1.33-1.34-1.84.42-2.86.45-5.71.11-8.57-.02-.18-.11-.35-.25-.47-4.81-3.9-8.46-8.72-10.93-14.47-.03-.07,0-.15.06-.19l.16-.11c.06-.04.13-.02.17.04,0,0,0,0,0,0,2.58,4.99,6.13,9.14,10.65,12.46.12.09.3.06.39-.06.02-.03.03-.06.04-.09.03-.12.04-.28.02-.49Z"/>
      <path class="cls-8" d="M148.72,106.36l-1.69-2.38c8.78-7.1,15.59-15.76,20.41-25.96.07-.14.23-.2.37-.13,0,0,0,0,0,0h.01c.14.08.19.24.12.38,0,0,0,0,0,0-1.02,1.86-1.99,3.7-2.93,5.51-4.27,8.31-9.7,15.83-16.29,22.57Z"/>
      <path class="cls-10" d="M181.75,124.62c-2.9-.94-5.86-1.46-8.78-2.33-4.6-1.37-8.89-3.53-13.34-5.23-.42-.16-.89,0-1.11.39-.97,1.67-2.24,3.21-3.79,4.6l25-34.28c.26-.35.66-.56,1.1-.56h28.21c.11,0,.2.09.2.2,0,.05-.01.09-.04.13l-27.44,37.09Z"/>
      <path class="cls-12" d="M108.55,87.35c.53,0,1,.11,1.43.32.17.08.3.23.35.41.43,1.56.76,2.53,1,2.92,2.41,4.07,4.72,8.2,6.93,12.39l-3.17-4.75s-.05-.04-.08-.02c0,0,0,0,0,0l-.15.11s-.05.08-.02.12c1.92,3.42,4.08,7.17,6.46,11.24,2.77,4.73,6.9,9.82,12.4,15.27,2.5,2.48,4.4,4.27,5.7,5.37.35.3.53.85.52,1.66-.03,7.93-.5,14.97-.44,21.98.09,8.77-.14,18.22-.67,28.36-.01.29-.26.52-.55.51-.12,0-.23-.05-.32-.12l-14.83-12.44c-.26-1.98.31-3.92,1.73-5.8,2.96-3.93,5.36-7.04,7.19-9.34,1.8-2.27,4.21-5.86,4.76-7.77.35-1.22.62-2.06.81-2.52-1.72-2.82-3.93-6-6.62-9.55-4.65-6.15-10.54-14.06-17.67-23.73-6.04-8.2-12.12-16.36-18.24-24.46-.04-.05-.02-.12.03-.16.02-.01.04-.02.06-.02h13.4Z"/>
      <path class="cls-13" d="M141.23,109.29c-.55.09-.89.28-1.04.56-.04.08-.06.16-.06.25l-.12,15.75c0,.19-.15.34-.34.34-.08,0-.16-.03-.22-.08-6.17-4.99-12.46-10.66-17.31-17.43-.07-.1-.75-.96-2.04-2.57-.68-.86-1.29-1.76-1.84-2.72-2.21-4.19-4.52-8.32-6.93-12.39-.23-.39-.56-1.36-1-2.92-.05-.18-.18-.33-.35-.41-.42-.2-.9-.31-1.43-.32l15.26-.05c.59,0,1.14.28,1.5.75l15.92,21.24Z"/>
      <path class="cls-8" d="M118.25,103.39c.55.96,1.16,1.87,1.84,2.72,1.28,1.61,1.96,2.47,2.04,2.57,4.85,6.76,11.14,12.44,17.31,17.43.15.12.36.1.48-.05.05-.06.08-.14.08-.22l.12-15.75c0-.09.02-.18.06-.25.15-.28.5-.47,1.04-.56l1.22,1.78c.44,20.81.72,41.52.83,62.12.01,1.57.35,3.43.33,5.19l-13,17.31c-.24.32-.57.57-.95.72-9.3,3.71-18.63,7.13-27.92,9.14-2.66.57-5.81.89-8.68.88-.15,0-.28-.13-.27-.28,0-.06.02-.11.05-.16l10.77-14.7c2.3-1.84,4.04-3.61,7.43-3.51,7.01.21,14.6.03,22.75-.55.59-.04.97-.44,1.16-1.2.04-.18,0-.36-.13-.49-.62-.64-1.89-1.86-2.8-2.53-3.97-2.92-7.49-6.11-10.55-9.58-.18-.2-.85-.78-2.03-1.75-.14-.12-.22-.3-.19-.49l.14-1.14c.18-.2.34-.48.47-.82.98-.15,2.06.34,3.26,1.47l14.83,12.44c.22.19.56.16.75-.06.08-.09.12-.2.12-.32.53-10.14.75-19.6.67-28.36-.06-7,.41-14.04.44-21.98,0-.81-.17-1.36-.52-1.66-1.3-1.1-3.19-2.89-5.7-5.37-5.5-5.45-9.63-10.54-12.4-15.27-2.38-4.07-4.54-7.82-6.46-11.24-.03-.04-.02-.1.02-.12l.15-.11s.06-.02.08,0c0,0,0,0,0,0l3.17,4.75Z"/>
      <path class="cls-12" d="M113.94,164.19c-.58-.88-.87-1.51-.87-1.9.06-11.61-2.56-22.57-7.85-32.86-.02-.04-.06-.05-.1-.04,0,0,0,0,0,0-.04.02-.05.06-.04.09,0,0,0,0,0,0,2.72,5.97,4.45,11.94,5.18,17.91.51,4.09.48,8.32-.07,12.68-.02.15-.15.26-.3.25-.05,0-.1-.03-.14-.06l-22.09-16.62-5.46-4.46c-.22-.17-.36-.42-.41-.7-.66-3.87-1.15-6.17-1.46-6.9-.57-1.3-1.09-2.7-1.57-4.19-.43-1.32-1.81-3.88-4.14-7.69-.06-.09-.18-.12-.28-.07,0,0,0,0,0,0h0c-.07.04-.09.13-.05.2,2.76,5.16,4.45,10.7,5.04,16.59.02.21-.13.4-.35.43-.09,0-.18-.01-.26-.07l-5.72-3.85c-.05-.04-.1-.08-.14-.13-.37-.51-.85-.99-1.44-1.41-4.87-3.5-10-7.33-15.4-11.5-2.45-1.9-5.63-3.74-7.79-5.96-.05-.05-.18-.11-.39-.2-.1-.04-.19-.1-.28-.18-.07-.07-.19-.06-.26,0-.03.03-.04.07-.05.11-.02.26.02.55.1.86-.35-.53-.5-.92-.47-1.17.05-.37.38-.63.75-.59,8.45.91,15.2,1.52,20.24,1.83,2.83.17,5.41.13,7.74-.12,2.54-.27,3.97-1.68,4.3-4.22.29-2.3.41-4.65.37-7.06,0-.19.14-.34.32-.35.08,0,.16.02.22.07,7.9,5.95,14.28,10.63,19.13,14.04,2.94,2.07,5.15,3.44,6.65,4.12.98.44,1.79.18,2.44-.8.14-.21.42-.27.63-.13.04.03.08.07.12.11l18.12,24.53c.11.14.11.34,0,.48l-13.98,18.89Z"/>
      <path class="cls-5" d="M154.73,122.05c1.55-1.39,2.81-2.93,3.79-4.6.22-.38.7-.55,1.11-.39,4.45,1.7,8.74,3.86,13.34,5.23,2.92.87,5.87,1.38,8.78,2.33-4.84,6.57-9.7,13.13-14.56,19.69-.19.26-.24.49-.16.7.08.2.24.41.46.62-.28.06-.51.19-.68.4-.08.1-.13.21-.14.34-.06.77-.25,2.34-.58,4.71-.59,4.18-.81,8.38-.68,12.58.02.58-.23,1.13-.67,1.51l-8.15,6.9-3.61-4.95c-.18-.25-.52-.31-.77-.13-.05.03-.09.07-.12.12l-8.46,11.29c.02-1.76-.32-3.62-.33-5.19-.11-20.6-.39-41.31-.83-62.12l9.82,13.36c.14.19.41.23.6.09.04-.03.07-.06.09-.09l1.76-2.39Z"/>
      <path class="cls-3" d="M87.67,143.65l-1.84-1.04c-.15-.08-.34-.02-.42.13-.06.11-.05.24.03.34,1,1.23,2.28,2.47,3.84,3.71,1.98,1.57,4.59,3.59,7.84,6.07.3.22.35.65.13.94-.02.02-.04.05-.06.07-.22.22-.58.41-1.08.59-7.08,2.48-14.11,3.73-21.67,4.38t0,0c3.95.68,7.88.66,11.79-.06,5.65-1.04,9.92-2,12.79-2.87.75-.23,1.47-.03,2.16.61,3.33,3.11,6.67,5.92,10.02,8.42.19.14.31.37.31.61v.25c0,.2.16.36.36.36.04,0,.08,0,.12-.02l.72-.25-23.39,31.78s-.1.06-.14.03l-.12-.09c-.08-.06-.11-.17-.06-.25,1.32-2.39,1.87-4.94,1.64-7.65-.21-2.43-3.61-4.77-6.23-6.56-5.52-3.79-14.94-10.12-28.25-18.99-2.76-1.85-5.45-3.71-8.04-5.6-.14-.1-.17-.3-.07-.45.03-.05.08-.08.13-.11,1.91-.82,3.99-1.8,6.24-2.96,2.61-1.34,4.24-2.99,4.89-4.97.04-.13.07-.27.09-.41.21-2.14.07-4.14-.42-6-.84-3.24-1.93-6.48-3.25-9.71-2.66-6.52-5.45-12.99-8.38-19.39-.08-.31-.12-.6-.1-.86,0-.1.1-.17.2-.17.04,0,.08.02.11.05.09.08.18.14.28.18.21.09.34.15.39.2,2.17,2.21,5.34,4.06,7.79,5.96,5.4,4.17,10.54,8.01,15.4,11.5.59.43,1.07.9,1.44,1.41.04.05.08.09.14.13l5.72,3.85c.18.12.42.08.54-.1.05-.08.08-.17.07-.26-.6-5.9-2.28-11.43-5.04-16.59-.04-.07-.02-.16.05-.2h0c.09-.06.22-.03.28.06,0,0,0,0,0,0,2.33,3.81,3.71,6.38,4.14,7.69.48,1.49,1.01,2.89,1.57,4.19.31.73.8,3.03,1.46,6.9.05.27.19.52.41.7l5.46,4.46Z"/>
      <path class="cls-5" d="M203.93,119.31l4.97.64M208.9,119.95c-3.09,1.23-4.62,3.15-6.48,6.39l1.13-2.58c.05-.11,0-.25-.11-.3-.09-.04-.21-.02-.27.06-.53.62-.98,1.36-1.34,2.22-.31.71-.63,1.42-.97,2.11-1.85,3.72-2.95,7.66-3.32,11.8-.05.52-.32,1-.74,1.31-5,3.61-9.65,7.01-13.95,10.22-.5.37-.7.79-.61,1.25,0,.09,0,.16-.02.22-.01.04-.05.06-.09.04-.01,0-.02-.01-.03-.02l-3.45-5.05c-.04-.05-.08-.1-.13-.14-.88-.72-1.44-1.46-1.67-2.23-.1-.33-.04-.68.16-.95l20.26-27.9c.18-.24.52-.3.77-.12.1.07.17.17.2.28.78,2.65,3.46,2.57,5.7,2.76l4.97.64Z"/>
      <path class="cls-1" d="M362.23,117.29h5.86c.22,0,.41.18.41.41h0v31.81c0,.72.58,1.3,1.3,1.3h2.16c.19,0,.35.16.35.35v4.74c0,.19-.13.35-.31.41-4.23,1.24-9.67.56-9.76-4.89-.22-12.21-.28-23.52-.18-33.94,0-.1.08-.18.18-.18Z"/>
      <path class="cls-9" d="M228.17,118.13c-.15-.2-.35-.29-.6-.28-.08,0-.17.03-.24.08-2.3,1.65-4.54,3.45-6.72,5.41-4.24,3.81-9.43,6.63-13.98,10.24l-6.89,5.11c-.09.07-.23.05-.3-.04-.03-.04-.05-.09-.04-.14.15-4.28,1.16-8.34,3.02-12.18,1.86-3.23,3.39-5.16,6.48-6.39M208.9,119.95l-4.97-.64c5.13.03,8.98-.13,11.56-.47,4.13-.56,8.27-1.07,12.42-1.53.14-.01.27.05.34.17.15.24.12.46-.09.65l-19.27,1.81Z"/>
      <path class="cls-7" d="M228.17,118.13c-.27.9-.51,1.59-.74,2.07-3.18,6.68-5.81,12.83-7.91,18.46-1.19,3.2-1.91,5.68-2.16,7.43-.65,4.49,2.78,6.77,6.27,8.51-5.91,2.63-11.88,3.95-17.9,3.98-6.6.02-13.31-1.25-20.13-3.83-.03-.01-.06-.03-.09-.05l-1.23-.81c-.11-.07-.25-.04-.33.07-.02.04-.04.08-.04.13v.89l-1.29-1.76c3.16-1.98,6.19-4.23,9.07-6.75,1.39-1.22,2.86-2.43,4.41-3.63,3.77-2.92,6.98-5.74,10.86-8.85.09-.07.1-.2.03-.29-.03-.04-.08-.06-.13-.07l-.25-.04c4.56-3.61,9.75-6.43,13.98-10.24,2.18-1.96,4.41-3.76,6.72-5.41.07-.05.15-.08.24-.08.25-.01.45.08.6.28Z"/>
      <path class="cls-1" d="M264.53,144.41s.04,0,.06-.01c0,0,.03-.04.06-.1l9.84-24.01c.08-.2.27-.34.49-.34h8.42c.14,0,.25.12.25.26h0v35.83c0,.17-.14.31-.31.31h-5.81c-.22,0-.39-.17-.39-.39h0v-26.48c0-.05-.05-.09-.1-.08-.03,0-.06.02-.07.05l-9.61,23.22c-.07.17-.24.29-.42.3h-4.82c-.19-.01-.35-.13-.42-.3l-9.6-23.23s-.08-.06-.13-.04c-.03.01-.05.04-.05.07v26.48c0,.21-.18.39-.4.39h-5.81c-.17,0-.31-.14-.31-.31h0v-35.83c0-.14.12-.26.26-.26h8.42c.21,0,.41.14.49.34l9.84,24.01c.02.06.05.1.06.1.02,0,.05.01.06.01Z"/>
      <path class="cls-8" d="M202.42,126.34c-1.86,3.84-2.87,7.9-3.02,12.18,0,.12.09.22.2.22.05,0,.1-.01.14-.04l6.89-5.11.25.04c.11.02.18.12.17.23,0,.05-.03.1-.07.13-3.88,3.12-7.09,5.93-10.86,8.85-1.56,1.21-3.03,2.42-4.41,3.63-2.89,2.52-5.91,4.77-9.07,6.75-.29-.42-.42-.68-.39-.79-.1-.46.1-.88.61-1.25,4.3-3.21,8.95-6.62,13.95-10.22.43-.31.7-.78.74-1.31.37-4.14,1.48-8.08,3.32-11.8.34-.69.67-1.39.97-2.11.37-.86.81-1.6,1.34-2.22.08-.1.22-.11.31-.03.08.06.11.18.06.27l-1.13,2.58Z"/>
      <path class="cls-1" d="M351.13,132.94c-4.03-5.4-13.54-6.31-17.71-.21-.05.08-.14.12-.24.12-.16,0-.29-.13-.29-.29v-2.9c0-.23-.19-.42-.42-.42h-5.5c-.15,0-.27.12-.27.27v36.49c0,.21.16.37.37.37h5.91c.2,0,.37-.16.37-.37v-13.35s.02-.09.06-.12c.06-.05.16-.04.21.04,2.1,3.2,5.14,4.68,9.12,4.44,11.64-.72,14.19-16.29,8.38-24.07ZM340.88,151.48l-1.05.03c-3.51.09-6.43-2.67-6.53-6.18l-.14-4.68c-.09-3.51,2.67-6.43,6.18-6.53l1.05-.03c3.51-.1,6.43,2.67,6.53,6.17l.14,4.69c.09,3.51-2.67,6.43-6.18,6.53Z"/>
      <path class="cls-1" d="M393.05,128.68c-7.43-.82-13.88,3.43-15.05,10.9-1.33,8.49,2.44,15.85,11.48,17.16,4.71.68,9.5-.39,12.93-3.79.08-.08.08-.19.02-.28l-2.75-3.73s0,0,0,0c-.05-.07-.15-.08-.22-.02-5.05,4.1-13.33,3.94-15.17-3.51,0-.04-.01-.07-.01-.11,0-.25.2-.45.45-.45h19.22c.1,0,.18-.07.19-.16.79-8.02-2.5-15.05-11.09-16ZM398.15,140.44c0,.06-.05.12-.12.12l-13.58.07c-.06,0-.12-.05-.12-.12v-.09c-.02-3.63,2.99-6.59,6.72-6.61h.32c3.73-.02,6.77,2.9,6.79,6.54v.09Z"/>
      <path class="cls-1" d="M317.09,141.52c.03-2.69-.11-4.58-.42-5.68-1.2-4.25-4.29-6.6-9.25-7.06-4.57-.42-8.72.34-12.46,2.31-.29.15-.42.49-.3.8l1.51,3.83s.02.05.04.08c.15.25.48.34.73.18,2.27-1.35,4.91-1.99,7.92-1.9,4.18.13,6.1,2.33,5.74,6.59,0,0,0,.02,0,.02-.02.09-.12.15-.22.13-3.73-.99-7.4-1.17-11.02-.53-3.99.7-6.31,2.95-6.95,6.73-.97,5.77,3.32,9.46,8.68,9.87,2.98.23,6.34-.39,8.42-2.4.65-.64,1.1-1.04,1.33-1.19.03-.02.06-.03.1-.04.1,0,.18.08.18.18v2.29c0,.35.28.63.63.63h4.61c.42,0,.75-.35.75-.76-.06-4.43-.06-9.12,0-14.09ZM310.57,149.08c-.02.46-.26.88-.64,1.14-2.43,1.64-4.99,2.2-7.68,1.68-4.84-.94-4.22-7.58.72-7.81,2.43-.12,4.88.13,7.38.74.25.05.42.28.41.54l-.18,3.7Z"/>
      <path class="cls-8" d="M113.94,164.19l-1.23,1.68-.72.25c-.19.07-.39-.03-.46-.22-.01-.04-.02-.08-.02-.12v-.25c0-.24-.11-.46-.31-.61-3.35-2.5-6.69-5.3-10.02-8.42-.69-.64-1.41-.84-2.16-.61-2.88.87-7.14,1.83-12.79,2.87-3.91.72-7.84.74-11.79.06t0,0c7.56-.65,14.59-1.9,21.67-4.38.51-.18.87-.37,1.08-.59.26-.26.26-.69,0-.95-.02-.02-.04-.04-.07-.06-3.25-2.47-5.86-4.5-7.84-6.07-1.56-1.24-2.84-2.48-3.84-3.71-.1-.14-.08-.33.06-.44.1-.07.23-.09.34-.03l1.84,1.04,22.09,16.62c.12.1.29.08.39-.04.03-.04.05-.09.06-.14.55-4.37.58-8.59.07-12.68-.73-5.97-2.46-11.93-5.18-17.91-.02-.04,0-.08.03-.09,0,0,0,0,0,0,.03-.02.08,0,.1.03,0,0,0,0,0,0,5.29,10.29,7.91,21.25,7.85,32.86,0,.39.28,1.03.87,1.9Z"/>
      <path class="cls-7" d="M123.11,170.7c-1.19-1.13-2.28-1.62-3.26-1.47l17.74-23.96c-.19.46-.46,1.3-.81,2.52-.55,1.91-2.96,5.5-4.76,7.77-1.83,2.3-4.23,5.42-7.19,9.34-1.42,1.88-2,3.81-1.73,5.8Z"/>
      <path class="cls-8" d="M167.49,145.62c.28.21.49.43.64.67-.02,1.51-.09,3.01-.22,4.49-.34,3.91-.05,7.16.2,10.76.02.26.24.46.51.44.1,0,.19-.04.27-.1l6.59-5.22.58.73c-.12.77-.49,1.62-1.1,2.53-.14.21-.34.39-.56.51l-1.28.7c-.17.09-.33.21-.48.34l-11.03,9.68s-.07.07-.11.11c-.96,1.21-2.05,2.19-3.28,2.95l-1.64-2.14,8.15-6.9c.44-.38.69-.93.67-1.51-.13-4.21.1-8.4.68-12.58.33-2.36.52-3.93.58-4.71,0-.12.06-.24.14-.34.18-.21.4-.34.68-.4Z"/>
      <path class="cls-5" d="M168.12,146.28l7.35,10.37-6.59,5.22c-.21.16-.51.13-.68-.08-.06-.08-.09-.17-.1-.26-.25-3.61-.54-6.86-.2-10.76.13-1.48.2-2.98.22-4.49Z"/>
      <path class="cls-6" d="M223.63,154.6l5.01,2.3c.17.08.24.28.17.44-.02.05-.06.1-.11.14l-27.8,19.48c-.28.2-.66.13-.87-.14l-16.11-21.84v-.89c0-.13.11-.23.24-.23.05,0,.09.01.13.04l1.23.81s.06.04.09.05c6.82,2.58,13.53,3.86,20.13,3.83,6.02-.02,11.98-1.35,17.9-3.98Z"/>
      <path class="cls-2" d="M158.21,174.2c1.22-.76,2.31-1.74,3.28-2.95.03-.04.07-.08.11-.11l11.03-9.68c.15-.13.31-.25.48-.34l1.28-.7c.22-.12.42-.29.56-.51.62-.91.98-1.75,1.1-2.53l35.76,48.43c.07.09.05.22-.04.29-.03.02-.07.04-.12.04h-29.63c-.22,0-.42-.1-.55-.28l-23.27-31.66Z"/>
      <path class="cls-3" d="M119.38,170.05l-.14,1.14c-.02.19.05.37.19.49,1.18.97,1.86,1.55,2.03,1.75,3.06,3.47,6.58,6.67,10.55,9.58.91.68,2.19,1.89,2.8,2.53.13.13.17.32.13.49-.19.76-.58,1.16-1.16,1.2-8.15.58-15.74.77-22.75.55-3.39-.1-5.13,1.67-7.43,3.51l15.77-21.25Z"/>
      <path class="cls-8" d="M168.85,201.41c.08.11.05.27-.06.35-.07.05-.15.06-.23.03-1.37-.53-3.86-1.43-7.46-2.69-5.74-2.01-11.34-4.29-16.78-6.85-.19-.09-.42-.01-.51.18-.03.06-.04.12-.04.18.47,15.17,1.26,30.79,2.37,46.87.01.19-.13.36-.32.37,0,0-.02,0-.02,0h-8.77c-.14,0-.25-.11-.25-.25,0,0,0-.01,0-.02l2.01-41.64c0-.08.03-.15.08-.21l13.25-18.03c.14-.2.41-.24.61-.1.04.03.07.06.1.1l16.03,21.71Z"/>
    </g>
    <g>
      <path class="cls-10" d="M440.26,128.74c-1.24-.4-2.5-.62-3.74-.99-1.96-.58-3.79-1.51-5.69-2.23-.18-.07-.38,0-.48.17-.42.71-.95,1.37-1.62,1.96l10.67-14.63c.11-.15.28-.24.47-.24h12.03s.09.04.09.08c0,.02,0,.04-.02.05l-11.71,15.82Z"/>
      <path class="cls-12" d="M409.03,112.84c.22,0,.43.05.61.14.07.04.13.1.15.18.18.67.33,1.08.42,1.25,1.03,1.74,2.01,3.5,2.96,5.29l-1.35-2.03s-.02-.02-.03,0c0,0,0,0,0,0l-.06.05s-.02.03-.01.05c.82,1.46,1.74,3.06,2.76,4.8,1.18,2.02,2.94,4.19,5.29,6.52,1.07,1.06,1.88,1.82,2.43,2.29.15.13.23.36.22.71-.01,3.39-.21,6.39-.19,9.38.04,3.74-.06,7.77-.28,12.1,0,.12-.11.22-.24.22-.05,0-.1-.02-.14-.05l-6.33-5.31c-.11-.85.13-1.67.74-2.47,1.26-1.68,2.29-3,3.07-3.99.77-.97,1.8-2.5,2.03-3.32.15-.52.26-.88.34-1.08-.74-1.2-1.68-2.56-2.82-4.08-1.99-2.63-4.5-6-7.54-10.12-2.58-3.5-5.17-6.98-7.78-10.44-.02-.02-.01-.05.01-.07,0,0,.02,0,.03,0h5.72Z"/>
      <path class="cls-13" d="M422.98,122.2c-.23.04-.38.12-.44.24-.02.03-.03.07-.03.11l-.05,6.72c0,.08-.06.15-.14.15-.03,0-.07-.01-.09-.03-2.63-2.13-5.32-4.55-7.39-7.43-.03-.04-.32-.41-.87-1.1-.29-.37-.55-.75-.79-1.16-.94-1.79-1.93-3.55-2.96-5.29-.1-.17-.24-.58-.42-1.25-.02-.08-.07-.14-.15-.18-.18-.09-.38-.13-.61-.14l6.51-.02c.25,0,.49.12.64.32l6.79,9.06Z"/>
      <path class="cls-8" d="M413.17,119.69c.23.41.5.8.79,1.16.55.69.84,1.05.87,1.1,2.07,2.89,4.75,5.31,7.39,7.43.06.05.15.04.21-.02.02-.03.03-.06.03-.09l.05-6.72s0-.08.03-.11c.06-.12.21-.2.44-.24l.52.76c.19,8.88.31,17.72.35,26.51,0,.67.15,1.46.14,2.21l-5.55,7.38c-.1.14-.24.24-.4.31-3.97,1.58-7.95,3.04-11.91,3.9-1.13.24-2.48.38-3.7.37-.07,0-.12-.05-.12-.12,0-.02,0-.05.02-.07l4.6-6.27c.98-.79,1.72-1.54,3.17-1.5,2.99.09,6.23.01,9.71-.24.25-.02.41-.19.5-.51.02-.08,0-.15-.06-.21-.26-.27-.81-.79-1.2-1.08-1.69-1.24-3.19-2.61-4.5-4.09-.08-.09-.36-.33-.87-.75-.06-.05-.09-.13-.08-.21l.06-.49c.08-.09.15-.2.2-.35.42-.06.88.14,1.39.63l6.33,5.31c.1.08.24.07.32-.03.03-.04.05-.09.05-.14.23-4.33.32-8.36.28-12.1-.03-2.99.17-5.99.19-9.38,0-.35-.07-.58-.22-.71-.55-.47-1.36-1.23-2.43-2.29-2.35-2.33-4.11-4.5-5.29-6.52-1.02-1.74-1.94-3.34-2.76-4.8-.01-.02,0-.04.01-.05l.06-.05s.03,0,.04,0c0,0,0,0,0,0l1.35,2.03Z"/>
      <path class="cls-5" d="M428.73,127.65c.66-.59,1.2-1.25,1.62-1.96.1-.16.3-.23.48-.17,1.9.73,3.73,1.65,5.69,2.23,1.25.37,2.51.59,3.74.99-2.07,2.8-4.14,5.6-6.21,8.4-.08.11-.1.21-.07.3.04.09.1.18.2.26-.12.03-.22.08-.29.17-.03.04-.05.09-.06.14-.03.33-.11,1-.25,2.01-.25,1.78-.35,3.57-.29,5.37,0,.25-.1.48-.29.64l-3.48,2.95-1.54-2.11c-.08-.11-.22-.13-.33-.05-.02.01-.04.03-.05.05l-3.61,4.82c.01-.75-.14-1.55-.14-2.21-.05-8.79-.17-17.62-.35-26.51l4.19,5.7c.06.08.17.1.26.04.02-.01.03-.02.04-.04l.75-1.02Z"/>
      <path class="cls-7" d="M415.24,148.4c-.51-.48-.97-.69-1.39-.63l7.57-10.22c-.08.2-.2.56-.34,1.08-.23.82-1.26,2.35-2.03,3.32-.78.98-1.8,2.31-3.07,3.99-.6.8-.85,1.63-.74,2.47Z"/>
      <path class="cls-8" d="M434.18,137.7c.12.09.21.19.27.28,0,.65-.04,1.28-.09,1.92-.14,1.67-.02,3.05.09,4.59,0,.11.1.2.22.19.04,0,.08-.02.11-.04l2.81-2.23.25.31c-.05.33-.21.69-.47,1.08-.06.09-.14.17-.24.22l-.55.3c-.07.04-.14.09-.21.15l-4.71,4.13s-.03.03-.05.05c-.41.51-.88.93-1.4,1.26l-.7-.91,3.48-2.95c.19-.16.29-.4.29-.64-.06-1.79.04-3.58.29-5.37.14-1.01.22-1.68.25-2.01,0-.05.02-.1.06-.14.08-.09.17-.15.29-.17Z"/>
      <path class="cls-5" d="M434.45,137.99l3.14,4.43-2.81,2.23c-.09.07-.22.05-.29-.03-.03-.03-.04-.07-.04-.11-.11-1.54-.23-2.93-.09-4.59.06-.63.09-1.27.09-1.92Z"/>
      <path class="cls-2" d="M430.22,149.9c.52-.32.99-.74,1.4-1.26.01-.02.03-.03.05-.05l4.71-4.13c.06-.06.13-.11.21-.15l.55-.3c.1-.05.18-.13.24-.22.26-.39.42-.75.47-1.08l15.26,20.66s.02.09-.02.12c-.01.01-.03.02-.05.02h-12.64c-.09,0-.18-.04-.23-.12l-9.93-13.51Z"/>
      <path class="cls-3" d="M413.65,148.13l-.06.49c0,.08.02.16.08.21.5.41.79.66.87.75,1.31,1.48,2.81,2.84,4.5,4.09.39.29.93.81,1.2,1.08.05.06.07.14.06.21-.08.32-.25.49-.5.51-3.48.25-6.71.33-9.71.24-1.45-.04-2.19.71-3.17,1.5l6.73-9.07Z"/>
    </g>
  </g>
  <g>
    <path class="cls-13" d="M251.26,174.85v4.09h14.86v3.22h-14.86v4.08h15.47v3.22h-19.67v-17.83h19.67v3.22h-15.47Z"/>
    <path class="cls-13" d="M268.49,188.81l7-5.78-6.91-5.78v-.65h4.41l5.11,4.43h.66l5.14-4.43h4.43v.65l-6.99,5.79,6.94,5.77v.65h-4.59l-4.97-4.38h-.61l-5.04,4.38h-4.58v-.65Z"/>
    <path class="cls-13" d="M290.36,176.6h4.19v1.03h.46c.86-.46,1.81-.8,2.84-1.04s2.1-.36,3.21-.36c1.64,0,3.06.27,4.26.81,1.2.54,2.12,1.32,2.77,2.34.65,1.02.97,2.23.97,3.64s-.32,2.63-.96,3.65c-.64,1.02-1.56,1.81-2.75,2.35-1.19.54-2.6.81-4.22.81-1.17,0-2.27-.14-3.31-.41s-1.98-.66-2.8-1.17h-.46v6.17h-4.19v-17.83ZM302.63,186.38c.67-.3,1.19-.74,1.55-1.31.36-.57.53-1.25.53-2.05s-.18-1.47-.54-2.04c-.36-.57-.88-1.01-1.56-1.31-.68-.3-1.49-.45-2.42-.45s-1.92.14-2.91.41-1.89.66-2.72,1.16v4.49c.8.48,1.71.86,2.7,1.14s1.98.42,2.95.42,1.74-.15,2.42-.45Z"/>
    <path class="cls-13" d="M311.65,176.6h4.19v1.38h.63c.72-.57,1.53-1.01,2.41-1.31s1.89-.45,3.01-.45c.55,0,1.12.04,1.73.12.61.08,1.12.18,1.54.32v3.12h-.65c-.27-.17-.7-.3-1.28-.4-.58-.1-1.16-.16-1.74-.16-1.07,0-2.07.18-2.99.53-.92.35-1.81.87-2.67,1.55v8.16h-4.19v-12.86Z"/>
    <path class="cls-13" d="M339.88,176.98c1.35.5,2.38,1.23,3.1,2.18.71.95,1.07,2.09,1.07,3.41v1.14l-.46.51h-13.45c.27.97.87,1.7,1.81,2.2.94.5,2.18.75,3.72.75,1.4,0,2.72-.13,3.97-.4,1.24-.27,2.29-.66,3.13-1.19h.62v2.79c-.87.46-1.98.83-3.33,1.09s-2.8.39-4.34.39c-2.06,0-3.84-.27-5.33-.81-1.49-.54-2.63-1.33-3.41-2.36s-1.18-2.25-1.18-3.67.37-2.63,1.09-3.65c.73-1.02,1.79-1.79,3.17-2.33,1.38-.53,3.04-.8,4.97-.8s3.5.25,4.85.75ZM339.88,181.8c-.14-.94-.64-1.64-1.51-2.11s-1.98-.71-3.33-.71-2.48.24-3.31.71c-.83.47-1.37,1.18-1.61,2.11h9.76Z"/>
    <path class="cls-13" d="M350.27,189.51c-1.46-.22-2.76-.53-3.9-.93v-2.77h.62c1.24.45,2.51.79,3.81,1.01s2.74.34,4.3.34c1.36,0,2.42-.11,3.19-.33.77-.22,1.15-.56,1.15-1.03,0-.33-.2-.58-.59-.76-.39-.17-.87-.29-1.44-.36-.56-.07-1.32-.12-2.26-.17l-.8-.04c-1.65-.09-3.06-.23-4.22-.42-1.16-.19-2.17-.56-3.02-1.11s-1.27-1.35-1.27-2.39c0-.92.33-1.7,1-2.35.66-.65,1.62-1.14,2.87-1.47,1.25-.34,2.75-.5,4.49-.5,1.45,0,2.89.11,4.33.34,1.43.22,2.71.53,3.83.93v2.77h-.65c-1.43-.49-2.77-.84-4-1.06-1.23-.22-2.6-.32-4.1-.32-2.52,0-3.78.46-3.78,1.39,0,.32.15.57.44.74.29.17.68.29,1.16.35.48.06,1.19.13,2.14.19l.29.02c2.14.15,3.83.32,5.08.51,1.25.19,2.31.56,3.18,1.11.87.55,1.31,1.35,1.31,2.41,0,.9-.34,1.67-1.03,2.31-.69.63-1.68,1.11-2.98,1.44-1.3.32-2.85.48-4.66.48-1.53,0-3.02-.11-4.48-.33Z"/>
    <path class="cls-13" d="M369.4,189.51c-1.46-.22-2.76-.53-3.9-.93v-2.77h.62c1.24.45,2.51.79,3.81,1.01s2.74.34,4.3.34c1.36,0,2.42-.11,3.19-.33.77-.22,1.15-.56,1.15-1.03,0-.33-.2-.58-.59-.76-.39-.17-.87-.29-1.44-.36-.56-.07-1.32-.12-2.26-.17l-.8-.04c-1.65-.09-3.06-.23-4.22-.42-1.16-.19-2.17-.56-3.02-1.11s-1.27-1.35-1.27-2.39c0-.92.33-1.7,1-2.35.66-.65,1.62-1.14,2.87-1.47,1.25-.34,2.75-.5,4.49-.5,1.45,0,2.89.11,4.33.34,1.43.22,2.71.53,3.83.93v2.77h-.65c-1.43-.49-2.77-.84-4-1.06-1.23-.22-2.6-.32-4.1-.32-2.52,0-3.78.46-3.78,1.39,0,.32.15.57.44.74.29.17.68.29,1.16.35.48.06,1.19.13,2.14.19l.29.02c2.14.15,3.83.32,5.08.51,1.25.19,2.31.56,3.18,1.11.87.55,1.31,1.35,1.31,2.41,0,.9-.34,1.67-1.03,2.31-.69.63-1.68,1.11-2.98,1.44-1.3.32-2.85.48-4.66.48-1.53,0-3.02-.11-4.48-.33Z"/>
    <path class="cls-13" d="M393.51,189.46v-17.83h4.19v17.83h-4.19Z"/>
    <path class="cls-13" d="M401.62,176.6h4.19v1.14h.63c.83-.5,1.74-.87,2.74-1.13,1-.26,2.04-.39,3.11-.39,1.47,0,2.74.24,3.83.72,1.09.48,1.92,1.18,2.51,2.08.58.91.88,1.99.88,3.25v7.17h-4.2v-6.69c0-.74-.16-1.37-.49-1.9-.32-.53-.79-.94-1.39-1.22-.61-.28-1.32-.42-2.15-.42-.95,0-1.91.15-2.86.45-.95.3-1.82.73-2.61,1.27v8.51h-4.19v-12.86Z"/>
    <path class="cls-13" d="M426.29,189.04c-1.51-.54-2.67-1.32-3.46-2.34s-1.19-2.24-1.19-3.66.4-2.64,1.19-3.66,1.95-1.8,3.46-2.34c1.51-.54,3.31-.81,5.41-.81,1.48,0,2.88.13,4.2.39,1.31.26,2.41.62,3.28,1.09v3.11h-.65c-.83-.49-1.85-.88-3.06-1.16-1.21-.29-2.42-.43-3.64-.43s-2.29.15-3.16.45c-.87.3-1.53.74-1.99,1.31-.46.57-.68,1.25-.68,2.05s.23,1.48.68,2.05c.46.57,1.12,1,1.99,1.31.87.3,1.92.45,3.16.45s2.44-.14,3.65-.42,2.22-.67,3.05-1.16h.65v3.11c-.88.46-1.97.83-3.29,1.09-1.31.26-2.7.39-4.17.39-2.1,0-3.9-.27-5.42-.81Z"/>
    <path class="cls-13" d="M442.83,185.14h4.26v4.31h-4.26v-4.31Z"/>
  </g>
</svg>