<?xml version="1.0" encoding="UTF-8"?>
<svg id="Layer_1" data-name="Layer 1" xmlns="http://www.w3.org/2000/svg" xmlns:xlink="http://www.w3.org/1999/xlink" viewBox="0 0 700 700">
  <defs>
    <style>
      .cls-1 {
        fill: #23432a;
      }

      .cls-2 {
        fill: #921b31;
      }

      .cls-3 {
        fill: none;
      }

      .cls-4 {
        fill: #b17f46;
      }

      .cls-5 {
        fill: #763121;
      }

      .cls-6 {
        fill: #a55d37;
      }

      .cls-7 {
        fill: #63151a;
      }

      .cls-8 {
        fill: #f3a952;
      }

      .cls-9 {
        fill: #a79e5d;
      }

      .cls-10 {
        clip-path: url(#clippath);
      }

      .cls-11 {
        fill: #de3230;
      }

      .cls-12 {
        fill: #ea532f;
      }
    </style>
    <clipPath id="clippath">
      <path class="cls-3" d="M164.8,308.32c.15.53.61,1.17,1.4,1.92l5.49,7.26,1.76,2.48,3.54,5.06c.15.22.46.28.69.12.04-.03.08-.07.11-.11,1.82-2.38,3.02-3.89,3.6-4.52.83-.9,1.6-1.89,2.32-2.97,1.83-2.76,4-5.77,6.51-9.01.97-1.25,3.54-4.73,7.71-10.45.99-1.36,2.25-3.42,2.39-4.67.65-5.73,1.83-11.35,2.69-17.05.03-.18-.1-.36-.28-.38-.08-.01-.16,0-.22.05-1.77,1.1-3.45,1.99-5.03,2.66-5.03,2.15-9.78,3.4-13.68-1.45-1.46-1.81-2.85-3.96-4.17-6.44-3.77-7.09-6.71-13.2-9.81-20.49-1.15-2.71-2.36-5.4-3.61-8.06l-.35-1.06c-.06-.19-.26-.3-.45-.24-.1.03-.19.11-.23.21-4.56,11.04-9.55,21.55-14.98,31.54-1.87,3.44-4.85,7.95-9.38,7.8-4.24-.14-8.99-2.5-13.09-4.54-.09-.04-.19,0-.23.08-.02.03-.02.07-.02.11l2.38,15.22c.04.25.26.44.52.44h21.44c.42,0,.82.2,1.07.54l11.92,15.96ZM179.71,336.32l-1.84,2.49c-.15.2-.43.24-.63.1-.04-.03-.07-.06-.1-.1l-10.23-13.92-1.27-1.86-16.59-22.13c-.37-.49-.94-.78-1.56-.78l-15.9.05h-13.96c-.06,0-.12.06-.11.12,0,.02,0,.05.02.06,6.37,8.44,12.7,16.94,19,25.48,7.42,10.07,13.56,18.31,18.41,24.72,2.8,3.7,5.1,7.02,6.89,9.96l-18.49,24.97c-.14.36-.3.65-.49.86l-16.43,22.14-11.23,15.31c-.09.13-.06.31.07.4.05.03.1.05.16.05,2.99.01,6.28-.32,9.05-.91,9.69-2.1,19.4-5.66,29.09-9.53.39-.15.74-.41.99-.75l13.55-18.03,8.81-11.77c.19-.26.55-.31.81-.12.05.04.09.08.13.13l3.76,5.16,1.71,2.23,24.24,32.99c.13.18.34.29.57.29h30.87c.12,0,.21-.1.21-.21,0-.04-.01-.09-.04-.12l-37.26-50.46-.61-.76-7.66-10.81c-.15-.24-.37-.47-.66-.69-.23-.22-.39-.43-.48-.64-.09-.22-.03-.46.17-.72,5.07-6.83,10.13-13.67,15.17-20.51l28.59-38.64c.07-.09.06-.22-.04-.29-.04-.03-.08-.04-.13-.04h-29.39c-.45,0-.88.22-1.14.58l-26.05,35.72ZM67.86,328.5c3.04,6.67,5.95,13.41,8.73,20.2,1.38,3.37,2.51,6.75,3.39,10.12.51,1.93.65,4.01.44,6.25-.02.14-.05.28-.09.42-.68,2.05-2.37,3.78-5.09,5.17-2.34,1.2-4.51,2.23-6.5,3.08-.17.08-.25.27-.18.44.02.05.06.1.11.14,2.7,1.97,5.5,3.91,8.38,5.84,13.87,9.25,23.69,15.84,29.44,19.79,2.73,1.87,6.27,4.31,6.49,6.84.24,2.82-.33,5.48-1.71,7.97-.05.09-.03.2.06.26l.13.09s.11.02.15-.03l24.37-33.11,1.28-1.76,14.57-19.68c.11-.15.11-.35,0-.5l-18.88-25.56c-.16-.21-.46-.26-.67-.1-.04.03-.08.07-.11.12-.68,1.02-1.53,1.3-2.55.83-1.56-.71-3.87-2.14-6.93-4.3-5.05-3.56-11.7-8.44-19.93-14.63-.15-.12-.37-.09-.49.06-.05.06-.08.15-.07.23.05,2.51-.08,4.97-.38,7.36-.34,2.65-1.83,4.12-4.48,4.4-2.43.26-5.11.3-8.06.12-5.25-.32-12.28-.96-21.09-1.91-.39-.04-.74.24-.79.62-.03.25.13.66.49,1.22ZM208.38,367.97c-.03.11.11.38.41.82l1.34,1.83,16.79,22.76c.21.29.61.35.9.15l28.96-20.3c.16-.11.2-.32.09-.48-.04-.05-.09-.09-.14-.12l-5.22-2.39c-3.64-1.82-7.22-4.19-6.54-8.87.26-1.83,1.01-4.41,2.25-7.75,2.18-5.86,4.93-12.27,8.24-19.23.24-.5.5-1.22.77-2.15.22-.2.25-.42.09-.68-.07-.12-.21-.19-.36-.18-4.32.48-8.64,1.01-12.94,1.59-2.69.36-6.71.52-12.05.49-2.33-.19-5.13-.11-5.94-2.87-.09-.3-.41-.47-.71-.38-.12.04-.22.11-.29.21l-21.11,29.07c-.21.29-.27.65-.17.99.24.8.82,1.58,1.74,2.33.05.04.1.09.14.14l3.6,5.27s.07.04.1.02c.01,0,.02-.02.03-.03.02-.06.03-.14.02-.23Z"/>
    </clipPath>
  </defs>
  <g>
    <g class="cls-10">
      <g>
        <path class="cls-3" d="M166.2,242.26c-.32.59-.48,1.17-.48,1.72-.04,11.06.12,22.11.48,33.15" vector-effect="non-scaling-stroke"/>
        <path class="cls-3" d="M166.2,277.14l-.44-5.87s-.04-.09-.09-.09h-.2c-.09,0-.17.07-.17.17l-.06,24.53" vector-effect="non-scaling-stroke"/>
        <path class="cls-3" d="M165.24,295.87c.02.22.01.39-.02.52-.04.15-.2.24-.36.2-.03,0-.06-.02-.09-.04-4.71-3.46-8.41-7.78-11.1-12.98-.03-.06-.11-.09-.17-.06,0,0,0,0-.01,0l-.17.12c-.07.04-.09.13-.06.2,2.58,5.99,6.38,11.02,11.39,15.08.15.12.24.3.26.48.36,2.97.32,5.95-.11,8.92" vector-effect="non-scaling-stroke"/>
        <path class="cls-3" d="M173.45,319.98c6.87-7.03,12.52-14.87,16.98-23.52.97-1.89,1.99-3.81,3.05-5.74.08-.14.02-.32-.12-.39,0,0,0,0,0,0h-.01c-.14-.08-.32-.02-.39.13,0,0,0,0,0,0-5.03,10.63-12.12,19.65-21.27,27.05" vector-effect="non-scaling-stroke"/>
        <path class="cls-3" d="M166.2,310.24l.04-18.4" vector-effect="non-scaling-stroke"/>
        <path class="cls-3" d="M166.25,291.84l-.05-14.7" vector-effect="non-scaling-stroke"/>
        <path class="cls-3" d="M166.25,291.84c-.08-.19-.19-.32-.33-.37-.2-.07-.43.03-.5.23-.01.04-.02.08-.02.12-.04,1.31-.1,2.66-.15,4.04" vector-effect="non-scaling-stroke"/>
        <path class="cls-3" d="M207.87,339c-3.03-.98-6.1-1.52-9.14-2.42-4.79-1.42-9.26-3.68-13.9-5.45-.44-.17-.93,0-1.16.41-1.01,1.74-2.33,3.34-3.95,4.79" vector-effect="non-scaling-stroke"/>
        <path class="cls-3" d="M193.01,360.88c-.29.06-.53.2-.71.42-.08.1-.13.22-.14.35-.06.81-.26,2.44-.61,4.9-.61,4.36-.85,8.73-.71,13.11.02.6-.24,1.18-.7,1.57l-8.49,7.19" vector-effect="non-scaling-stroke"/>
        <path class="cls-3" d="M193.67,361.57c-.02,1.58-.09,3.13-.23,4.68-.35,4.07-.05,7.46.21,11.21.02.27.26.48.53.46.1,0,.2-.04.28-.11l6.87-5.44" vector-effect="non-scaling-stroke"/>
        <path class="cls-3" d="M201.94,373.14c-.12.81-.51,1.68-1.15,2.63-.15.22-.35.4-.58.53l-1.34.73c-.18.1-.35.22-.5.36l-11.5,10.08s-.08.08-.11.12c-1,1.26-2.14,2.28-3.41,3.07" vector-effect="non-scaling-stroke"/>
        <path class="cls-3" d="M166.92,324.89c.46,21.69.75,43.26.87,64.73.01,1.63.37,3.57.34,5.41" vector-effect="non-scaling-stroke"/>
        <path class="cls-3" d="M126.45,408.48c2.4-1.92,4.21-3.76,7.74-3.66,7.31.22,15.21.03,23.7-.58.61-.04,1.01-.46,1.21-1.25.05-.18,0-.38-.14-.52-.64-.67-1.97-1.93-2.92-2.64-4.14-3.04-7.8-6.37-10.99-9.99-.18-.21-.89-.82-2.12-1.82-.15-.12-.23-.31-.2-.51l.15-1.18" vector-effect="non-scaling-stroke"/>
        <path class="cls-3" d="M143.37,385.48c1.02-.16,2.15.35,3.39,1.53" vector-effect="non-scaling-stroke"/>
        <path class="cls-3" d="M165.65,323.03c-.57.1-.93.29-1.09.58-.04.08-.07.17-.07.26l-.12,16.41c0,.2-.16.36-.35.36-.08,0-.16-.03-.23-.08-6.43-5.2-12.98-11.11-18.04-18.15-.08-.11-.79-1-2.12-2.68-.71-.89-1.35-1.84-1.92-2.84" vector-effect="non-scaling-stroke"/>
        <path class="cls-3" d="M131.61,300.17c.55,0,1.04.12,1.49.33.18.09.31.24.36.43.45,1.62.8,2.64,1.04,3.04,2.51,4.24,4.92,8.55,7.22,12.91" vector-effect="non-scaling-stroke"/>
        <path class="cls-3" d="M141.71,316.89l-3.3-4.95s-.05-.04-.08-.02c0,0,0,0,0,0l-.15.12s-.05.08-.02.13c2,3.56,4.25,7.47,6.73,11.71,2.88,4.93,7.19,10.24,12.92,15.91,2.61,2.58,4.58,4.45,5.93,5.6.37.31.55.89.55,1.73-.03,8.27-.52,15.6-.45,22.9.09,9.13-.14,18.98-.69,29.55-.01.3-.27.54-.57.53-.12,0-.24-.05-.33-.13l-15.45-12.96" vector-effect="non-scaling-stroke"/>
        <path class="cls-3" d="M146.77,387.01c-.27-2.07.33-4.08,1.8-6.04,3.09-4.09,5.58-7.34,7.49-9.73,1.88-2.36,4.39-6.1,4.96-8.1.36-1.27.64-2.14.84-2.63" vector-effect="non-scaling-stroke"/>
        <path class="cls-3" d="M137.22,380.22c-.61-.91-.91-1.57-.9-1.98.06-12.1-2.66-23.51-8.18-34.24-.02-.04-.07-.06-.1-.04,0,0,0,0,0,0-.04.02-.05.06-.04.1,0,0,0,0,0,0,2.84,6.22,4.64,12.44,5.4,18.66.53,4.26.5,8.66-.07,13.21-.02.16-.16.27-.32.26-.05,0-.11-.03-.15-.06l-23.02-17.31" vector-effect="non-scaling-stroke"/>
        <path class="cls-3" d="M109.85,358.82l-5.69-4.65c-.23-.18-.38-.44-.42-.72-.69-4.03-1.19-6.43-1.52-7.19-.59-1.35-1.14-2.81-1.64-4.36-.45-1.37-1.88-4.04-4.31-8.02-.06-.1-.19-.13-.29-.07,0,0,0,0,0,0h0c-.07.05-.1.14-.06.21,2.88,5.38,4.63,11.14,5.25,17.29.02.22-.14.42-.36.44-.1,0-.19-.01-.27-.07l-5.96-4.01c-.05-.04-.1-.08-.14-.14-.38-.54-.89-1.03-1.5-1.47-5.07-3.65-10.42-7.64-16.05-11.99-2.55-1.98-5.86-3.9-8.12-6.21-.05-.05-.18-.12-.41-.21-.1-.04-.2-.1-.29-.18-.08-.07-.2-.07-.27,0-.03.03-.05.07-.05.11-.02.27.02.57.1.9" vector-effect="non-scaling-stroke"/>
        <path class="cls-3" d="M109.85,358.82l-1.91-1.08c-.16-.08-.36-.02-.44.13-.06.11-.05.25.03.35,1.04,1.28,2.37,2.57,4,3.87,2.06,1.64,4.79,3.74,8.17,6.32.31.23.37.67.13.98-.02.02-.04.05-.06.07-.23.23-.6.43-1.13.61-7.38,2.58-14.71,3.89-22.58,4.56t0,0c4.12.71,8.21.69,12.29-.06,5.89-1.09,10.33-2.09,13.33-3,.79-.24,1.54-.03,2.25.64,3.47,3.24,6.95,6.17,10.44,8.77.2.15.32.38.32.63v.26c0,.21.17.38.38.38.04,0,.08,0,.12-.02l.75-.26" vector-effect="non-scaling-stroke"/>
        <path class="cls-3" d="M230.97,333.47l5.18.66M236.15,334.14c-3.22,1.28-4.81,3.28-6.75,6.65" vector-effect="non-scaling-stroke"/>
        <path class="cls-3" d="M229.4,340.79l1.18-2.69c.05-.12,0-.26-.11-.31-.1-.05-.21-.02-.28.06-.55.65-1.02,1.42-1.4,2.31-.32.74-.66,1.48-1.01,2.2-1.92,3.88-3.08,7.98-3.46,12.29-.05.55-.33,1.04-.77,1.36-5.2,3.76-10.05,7.31-14.53,10.65-.52.39-.73.82-.63,1.3" vector-effect="non-scaling-stroke"/>
        <path class="cls-3" d="M256.23,332.24c-.16-.2-.37-.3-.63-.29-.09,0-.17.03-.25.09-2.4,1.72-4.73,3.6-7,5.63-4.41,3.96-9.82,6.91-14.57,10.67" vector-effect="non-scaling-stroke"/>
        <path class="cls-3" d="M233.79,348.34l-7.18,5.32c-.1.07-.24.06-.31-.04-.03-.04-.05-.09-.05-.14.16-4.46,1.21-8.69,3.15-12.69" vector-effect="non-scaling-stroke"/>
        <path class="cls-3" d="M251.5,370.24c-6.16,2.74-12.38,4.12-18.65,4.14-6.88.02-13.87-1.31-20.97-4-.03-.01-.06-.03-.09-.05l-1.28-.84c-.11-.07-.27-.04-.34.07-.03.04-.04.09-.04.13v.93" vector-effect="non-scaling-stroke"/>
        <path class="cls-3" d="M208.78,368.8c3.29-2.06,6.44-4.41,9.45-7.03,1.44-1.27,2.98-2.53,4.6-3.79,3.93-3.04,7.27-5.98,11.32-9.22.09-.08.11-.21.03-.3-.03-.04-.08-.07-.13-.07l-.26-.04" vector-effect="non-scaling-stroke"/>
      </g>
    </g>
    <path class="cls-12" d="M166.2,242.26c-.32.59-.48,1.17-.48,1.72-.04,11.06.12,22.11.48,33.15l-.44-5.87s-.04-.09-.09-.09h-.2c-.09,0-.17.07-.17.17l-.06,24.53c.02.22.01.39-.02.52-.04.15-.2.24-.36.2-.03,0-.06-.02-.09-.04-4.71-3.46-8.41-7.78-11.1-12.98-.03-.06-.11-.09-.17-.06,0,0,0,0-.01,0l-.17.12c-.07.04-.09.13-.06.2,2.58,5.99,6.38,11.02,11.39,15.08.15.12.24.3.26.48.36,2.97.32,5.95-.11,8.92l-11.92-15.96c-.25-.34-.65-.54-1.07-.54h-21.44c-.26,0-.48-.19-.52-.44l-2.38-15.22c-.02-.09.05-.18.14-.2.04,0,.07,0,.11.02,4.11,2.04,8.85,4.4,13.09,4.54,4.53.15,7.51-4.36,9.38-7.8,5.43-9.99,10.42-20.51,14.98-31.54.07-.19.28-.28.47-.2.1.04.18.12.21.23l.35,1.06Z"/>
    <path class="cls-8" d="M173.45,319.98c6.87-7.03,12.52-14.87,16.98-23.52.97-1.89,1.99-3.81,3.05-5.74.08-.14.02-.32-.12-.39,0,0,0,0,0,0h-.01c-.14-.08-.32-.02-.39.13,0,0,0,0,0,0-5.03,10.63-12.12,19.65-21.27,27.05l-5.49-7.26.04-18.4-.05-14.7c-.36-11.05-.52-22.1-.48-33.15,0-.56.16-1.13.48-1.72,1.25,2.66,2.46,5.35,3.61,8.06,3.1,7.29,6.05,13.4,9.81,20.49,1.33,2.49,2.72,4.64,4.17,6.44,3.9,4.85,8.65,3.61,13.68,1.45,1.58-.68,3.25-1.56,5.03-2.66.16-.1.37-.05.46.11.04.07.06.15.05.22-.86,5.7-2.04,11.32-2.69,17.05-.14,1.25-1.39,3.31-2.39,4.67-4.17,5.72-6.74,9.2-7.71,10.45-2.51,3.24-4.68,6.25-6.51,9.01-.72,1.08-1.49,2.07-2.32,2.97-.58.63-1.78,2.14-3.6,4.52-.17.22-.48.26-.69.1-.04-.03-.08-.07-.1-.11l-3.54-5.06Z"/>
    <path class="cls-6" d="M166.2,277.14l.05,14.7c-.08-.19-.19-.32-.33-.37-.2-.07-.43.03-.5.23-.01.04-.02.08-.02.12-.04,1.31-.1,2.66-.15,4.04l.06-24.53c0-.09.07-.17.17-.17h.2s.09.04.09.09l.44,5.87Z"/>
    <path class="cls-7" d="M165.24,295.87c.06-1.39.11-2.74.15-4.04,0-.22.19-.39.41-.38.04,0,.08,0,.12.02.14.05.24.18.33.37l-.04,18.4c-.79-.75-1.25-1.39-1.4-1.92.43-2.98.47-5.95.11-8.92-.02-.19-.11-.36-.26-.48-5.01-4.06-8.81-9.09-11.39-15.08-.03-.08,0-.16.06-.2l.17-.12c.06-.04.14-.02.18.04,0,0,0,0,0,.01,2.68,5.2,6.38,9.52,11.1,12.98.13.09.31.07.4-.06.02-.03.04-.06.04-.09.03-.12.04-.29.02-.52Z"/>
    <path class="cls-7" d="M173.45,319.98l-1.76-2.48c9.15-7.4,16.24-16.42,21.27-27.05.07-.14.24-.2.38-.14,0,0,0,0,0,0h.01c.14.08.2.25.13.39,0,0,0,0,0,0-1.06,1.94-2.08,3.85-3.05,5.74-4.45,8.65-10.11,16.49-16.98,23.52Z"/>
    <path class="cls-9" d="M207.87,339c-3.03-.98-6.1-1.52-9.14-2.42-4.79-1.42-9.26-3.68-13.9-5.45-.44-.17-.93,0-1.16.41-1.01,1.74-2.33,3.34-3.95,4.79l26.05-35.72c.27-.37.69-.58,1.14-.58h29.39c.12,0,.21.09.21.21,0,.05-.02.09-.04.13l-28.59,38.64Z"/>
    <path class="cls-11" d="M131.61,300.17c.55,0,1.04.12,1.49.33.18.09.31.24.36.43.45,1.62.8,2.64,1.04,3.04,2.51,4.24,4.92,8.55,7.22,12.91l-3.3-4.95s-.05-.04-.08-.02c0,0,0,0,0,0l-.15.12s-.05.08-.02.13c2,3.56,4.25,7.47,6.73,11.71,2.88,4.93,7.19,10.24,12.92,15.91,2.61,2.58,4.58,4.45,5.93,5.6.37.31.55.89.55,1.73-.03,8.27-.52,15.6-.45,22.9.09,9.13-.14,18.98-.69,29.55-.01.3-.27.54-.57.53-.12,0-.24-.05-.33-.13l-15.45-12.96c-.27-2.07.33-4.08,1.8-6.04,3.09-4.09,5.58-7.34,7.49-9.73,1.88-2.36,4.39-6.1,4.96-8.1.36-1.27.64-2.14.84-2.63-1.8-2.94-4.09-6.26-6.89-9.96-4.85-6.41-10.98-14.65-18.41-24.72-6.3-8.55-12.63-17.04-19-25.48-.04-.05-.02-.13.03-.16.02-.01.04-.02.06-.02h13.96Z"/>
    <path class="cls-12" d="M165.65,323.03c-.57.1-.93.29-1.09.58-.04.08-.07.17-.07.26l-.12,16.41c0,.2-.16.36-.35.36-.08,0-.16-.03-.23-.08-6.43-5.2-12.98-11.11-18.04-18.15-.08-.11-.79-1-2.12-2.68-.71-.89-1.35-1.84-1.92-2.84-2.3-4.37-4.71-8.67-7.22-12.91-.24-.41-.59-1.42-1.04-3.04-.05-.19-.18-.34-.36-.43-.44-.21-.94-.32-1.49-.33l15.9-.05c.61,0,1.19.29,1.56.78l16.59,22.13Z"/>
    <path class="cls-7" d="M141.71,316.89c.57,1,1.21,1.94,1.92,2.84,1.34,1.68,2.05,2.58,2.12,2.68,5.06,7.05,11.61,12.96,18.04,18.15.15.13.38.1.5-.05.05-.06.08-.15.08-.23l.12-16.41c0-.09.02-.18.07-.26.16-.29.52-.48,1.09-.58l1.27,1.86c.46,21.69.75,43.26.87,64.73.01,1.63.37,3.57.34,5.41l-13.55,18.03c-.25.34-.6.6-.99.75-9.69,3.87-19.41,7.43-29.09,9.53-2.77.6-6.06.93-9.05.91-.16,0-.29-.13-.29-.29,0-.06.02-.12.05-.16l11.23-15.31c2.4-1.92,4.21-3.76,7.74-3.66,7.31.22,15.21.03,23.7-.58.61-.04,1.01-.46,1.21-1.25.05-.18,0-.38-.14-.52-.64-.67-1.97-1.93-2.92-2.64-4.14-3.04-7.8-6.37-10.99-9.99-.18-.21-.89-.82-2.12-1.82-.15-.12-.23-.31-.2-.51l.15-1.18c.19-.21.36-.5.49-.86,1.02-.16,2.15.35,3.39,1.53l15.45,12.96c.23.2.58.17.78-.07.08-.09.12-.21.13-.33.55-10.57.78-20.42.69-29.55-.07-7.3.42-14.63.45-22.9,0-.84-.18-1.42-.55-1.73-1.35-1.15-3.33-3.02-5.93-5.6-5.73-5.68-10.03-10.98-12.92-15.91-2.48-4.24-4.73-8.15-6.73-11.71-.03-.04-.02-.1.02-.13l.15-.12s.07-.02.09,0c0,0,0,0,0,0l3.3,4.95Z"/>
    <path class="cls-11" d="M137.22,380.22c-.61-.91-.91-1.57-.9-1.98.06-12.1-2.66-23.51-8.18-34.24-.02-.04-.07-.06-.1-.04,0,0,0,0,0,0-.04.02-.05.06-.04.1,0,0,0,0,0,0,2.84,6.22,4.64,12.44,5.4,18.66.53,4.26.5,8.66-.07,13.21-.02.16-.16.27-.32.26-.05,0-.11-.03-.15-.06l-23.02-17.31-5.69-4.65c-.23-.18-.38-.44-.42-.72-.69-4.03-1.19-6.43-1.52-7.19-.59-1.35-1.14-2.81-1.64-4.36-.45-1.37-1.88-4.04-4.31-8.02-.06-.1-.19-.13-.29-.07,0,0,0,0,0,0h0c-.07.05-.1.14-.06.21,2.88,5.38,4.63,11.14,5.25,17.29.02.22-.14.42-.36.44-.1,0-.19-.01-.27-.07l-5.96-4.01c-.05-.04-.1-.08-.14-.14-.38-.54-.89-1.03-1.5-1.47-5.07-3.65-10.42-7.64-16.05-11.99-2.55-1.98-5.86-3.9-8.12-6.21-.05-.05-.18-.12-.41-.21-.1-.04-.2-.1-.29-.18-.08-.07-.2-.07-.27,0-.03.03-.05.07-.05.11-.02.27.02.57.1.9-.36-.56-.52-.96-.49-1.22.05-.38.4-.66.79-.62,8.81.95,15.83,1.59,21.09,1.91,2.95.18,5.64.14,8.06-.12,2.65-.28,4.14-1.75,4.48-4.4.3-2.39.43-4.85.38-7.36,0-.19.14-.36.34-.36.08,0,.16.02.23.07,8.23,6.19,14.88,11.07,19.93,14.63,3.06,2.16,5.37,3.59,6.93,4.3,1.02.46,1.87.18,2.55-.83.14-.22.44-.28.66-.13.05.03.09.07.12.11l18.88,25.56c.11.15.11.35,0,.5l-14.57,19.68Z"/>
    <path class="cls-4" d="M179.71,336.32c1.62-1.45,2.93-3.05,3.95-4.79.23-.4.72-.57,1.16-.41,4.64,1.77,9.11,4.03,13.9,5.45,3.04.9,6.12,1.44,9.14,2.42-5.05,6.85-10.1,13.68-15.17,20.51-.2.27-.25.51-.17.72.09.21.25.43.48.64-.29.06-.53.2-.71.42-.08.1-.13.22-.14.35-.06.81-.26,2.44-.61,4.9-.61,4.36-.85,8.73-.71,13.11.02.6-.24,1.18-.7,1.57l-8.49,7.19-3.76-5.16c-.19-.26-.55-.32-.81-.13-.05.04-.09.08-.13.13l-8.81,11.77c.02-1.84-.33-3.77-.34-5.41-.12-21.47-.41-43.04-.87-64.73l10.23,13.92c.15.2.43.24.63.1.04-.03.07-.06.1-.1l1.84-2.49Z"/>
    <path class="cls-2" d="M109.85,358.82l-1.91-1.08c-.16-.08-.36-.02-.44.13-.06.11-.05.25.03.35,1.04,1.28,2.37,2.57,4,3.87,2.06,1.64,4.79,3.74,8.17,6.32.31.23.37.67.13.98-.02.02-.04.05-.06.07-.23.23-.6.43-1.13.61-7.38,2.58-14.71,3.89-22.58,4.56t0,0c4.12.71,8.21.69,12.29-.06,5.89-1.09,10.33-2.09,13.33-3,.79-.24,1.54-.03,2.25.64,3.47,3.24,6.95,6.17,10.44,8.77.2.15.32.38.32.63v.26c0,.21.17.38.38.38.04,0,.08,0,.12-.02l.75-.26-24.37,33.11s-.1.06-.15.03l-.13-.09c-.09-.06-.11-.18-.06-.26,1.38-2.49,1.95-5.15,1.71-7.97-.21-2.53-3.76-4.97-6.49-6.84-5.75-3.94-15.56-10.54-29.44-19.79-2.88-1.92-5.67-3.87-8.38-5.84-.15-.11-.18-.32-.07-.47.04-.05.08-.09.14-.11,1.99-.85,4.16-1.88,6.5-3.08,2.72-1.4,4.42-3.12,5.09-5.17.04-.14.08-.28.09-.42.22-2.23.07-4.32-.44-6.25-.88-3.38-2.01-6.75-3.39-10.12-2.77-6.8-5.68-13.53-8.73-20.2-.09-.32-.12-.62-.1-.9,0-.1.1-.18.21-.17.04,0,.08.02.11.05.09.08.19.14.29.18.22.09.36.16.41.21,2.26,2.31,5.57,4.23,8.12,6.21,5.63,4.35,10.98,8.34,16.05,11.99.62.45,1.12.94,1.5,1.47.04.05.09.1.14.14l5.96,4.01c.18.13.44.08.56-.1.05-.08.08-.17.07-.27-.62-6.15-2.37-11.91-5.25-17.29-.04-.07-.02-.16.06-.21h0c.1-.06.23-.03.29.07,0,0,0,0,0,0,2.43,3.97,3.86,6.64,4.31,8.02.5,1.55,1.05,3.01,1.64,4.36.33.76.83,3.16,1.52,7.19.05.28.2.54.42.72l5.69,4.65Z"/>
    <path class="cls-4" d="M230.97,333.47l5.18.66M236.15,334.14c-3.22,1.28-4.81,3.28-6.75,6.65l1.18-2.69c.05-.12,0-.26-.11-.31-.1-.05-.21-.02-.28.06-.55.65-1.02,1.42-1.4,2.31-.32.74-.66,1.48-1.01,2.2-1.92,3.88-3.08,7.98-3.46,12.29-.05.55-.33,1.04-.77,1.36-5.2,3.76-10.05,7.31-14.53,10.65-.52.39-.73.82-.63,1.3,0,.09,0,.17-.02.23-.01.04-.06.06-.09.04-.01,0-.03-.01-.03-.03l-3.6-5.27c-.04-.05-.08-.1-.14-.14-.92-.75-1.5-1.52-1.74-2.33-.1-.34-.04-.71.17-.99l21.11-29.07c.19-.25.54-.31.8-.12.1.07.17.18.21.29.81,2.76,3.61,2.68,5.94,2.87l5.18.67Z"/>
    <path class="cls-8" d="M256.23,332.24c-.16-.2-.37-.3-.63-.29-.09,0-.17.03-.25.09-2.4,1.72-4.73,3.6-7,5.63-4.41,3.96-9.82,6.91-14.57,10.67l-7.18,5.32c-.1.07-.24.06-.31-.04-.03-.04-.05-.09-.05-.14.16-4.46,1.21-8.69,3.15-12.69,1.94-3.37,3.54-5.38,6.75-6.65M236.15,334.13l-5.18-.66c5.34.03,9.36-.13,12.05-.49,4.3-.58,8.62-1.11,12.94-1.59.15-.01.28.06.36.18.16.25.12.48-.09.68l-20.08,1.89Z"/>
    <path class="cls-6" d="M256.23,332.24c-.28.94-.54,1.66-.77,2.15-3.31,6.96-6.06,13.37-8.24,19.23-1.24,3.33-1.99,5.92-2.25,7.75-.68,4.68,2.9,7.05,6.54,8.87-6.16,2.74-12.38,4.12-18.65,4.14-6.88.02-13.87-1.31-20.97-4-.03-.01-.06-.03-.09-.05l-1.28-.84c-.11-.07-.27-.04-.34.07-.03.04-.04.09-.04.13v.93l-1.34-1.83c3.29-2.06,6.44-4.41,9.45-7.03,1.44-1.27,2.98-2.53,4.6-3.79,3.93-3.04,7.27-5.98,11.32-9.22.09-.08.11-.21.03-.3-.03-.04-.08-.07-.13-.07l-.26-.04c4.75-3.76,10.16-6.7,14.57-10.67,2.27-2.04,4.6-3.92,7-5.63.07-.05.16-.08.25-.09.26-.01.47.08.63.29Z"/>
    <path class="cls-7" d="M229.4,340.79c-1.94,4-2.99,8.23-3.15,12.69,0,.12.09.22.21.23.05,0,.1-.01.14-.05l7.18-5.32.26.04c.11.02.19.12.17.24,0,.05-.04.1-.08.13-4.04,3.25-7.39,6.18-11.32,9.22-1.62,1.26-3.15,2.52-4.6,3.79-3.01,2.63-6.16,4.97-9.45,7.03-.3-.44-.43-.71-.41-.82-.1-.48.11-.91.63-1.3,4.48-3.34,9.33-6.89,14.53-10.65.44-.32.73-.82.77-1.36.38-4.32,1.54-8.41,3.46-12.29.36-.72.69-1.45,1.01-2.2.38-.9.85-1.67,1.4-2.31.08-.1.23-.12.33-.04.08.07.11.18.06.28l-1.18,2.69Z"/>
    <path class="cls-7" d="M137.22,380.22l-1.28,1.76-.75.26c-.19.07-.41-.03-.48-.23-.01-.04-.02-.08-.02-.13v-.26c0-.25-.12-.48-.32-.63-3.49-2.6-6.97-5.53-10.44-8.77-.72-.67-1.47-.88-2.25-.64-3,.91-7.44,1.91-13.33,3-4.08.75-8.17.77-12.29.06t0,0c7.87-.68,15.2-1.98,22.58-4.56.53-.18.9-.39,1.13-.61.27-.27.27-.72,0-.99-.02-.02-.04-.04-.07-.06-3.38-2.58-6.11-4.68-8.17-6.32-1.63-1.29-2.96-2.58-4-3.87-.11-.14-.08-.35.06-.46.1-.08.24-.09.35-.03l1.91,1.08,23.02,17.31c.12.1.31.08.41-.05.03-.04.06-.1.06-.15.58-4.55.6-8.95.07-13.21-.77-6.22-2.57-12.43-5.4-18.66-.02-.04,0-.08.04-.1,0,0,0,0,0,0,.04-.02.08,0,.1.03,0,0,0,0,0,0,5.51,10.72,8.24,22.14,8.18,34.24,0,.41.3,1.07.9,1.98Z"/>
    <path class="cls-6" d="M146.77,387.01c-1.24-1.17-2.38-1.68-3.39-1.53l18.49-24.97c-.2.48-.48,1.36-.84,2.63-.57,1.99-3.08,5.73-4.96,8.1-1.91,2.4-4.4,5.64-7.49,9.73-1.48,1.96-2.08,3.97-1.8,6.04Z"/>
    <path class="cls-7" d="M193.01,360.88c.29.22.51.45.66.69-.02,1.58-.09,3.13-.23,4.68-.35,4.07-.05,7.46.21,11.21.02.27.26.48.53.46.1,0,.2-.04.28-.11l6.87-5.44.61.76c-.12.81-.51,1.68-1.15,2.63-.15.22-.35.4-.58.53l-1.34.73c-.18.1-.35.22-.5.36l-11.5,10.08s-.08.08-.11.12c-1,1.26-2.14,2.28-3.41,3.07l-1.71-2.23,8.49-7.19c.46-.39.72-.97.7-1.57-.14-4.38.1-8.75.71-13.11.34-2.46.55-4.1.61-4.9,0-.13.06-.25.14-.35.18-.22.42-.36.71-.42Z"/>
    <path class="cls-4" d="M193.67,361.57l7.66,10.81-6.87,5.44c-.22.17-.53.13-.71-.08-.06-.08-.1-.17-.11-.27-.26-3.76-.56-7.14-.21-11.21.14-1.54.21-3.1.23-4.68Z"/>
    <path class="cls-5" d="M251.5,370.24l5.22,2.39c.17.08.25.29.17.46-.03.06-.07.11-.12.14l-28.96,20.3c-.29.2-.69.14-.9-.15l-16.79-22.76v-.93c0-.14.11-.24.25-.24.05,0,.09.01.13.04l1.28.84s.06.04.09.05c7.1,2.69,14.09,4.02,20.97,4,6.27-.02,12.48-1.41,18.65-4.14Z"/>
    <path class="cls-1" d="M183.35,390.66c1.27-.79,2.41-1.81,3.41-3.07.03-.04.07-.08.11-.12l11.5-10.08c.15-.14.32-.26.5-.36l1.34-.73c.23-.12.43-.31.58-.53.64-.95,1.02-1.83,1.15-2.63l37.26,50.46c.07.1.05.23-.05.3-.03.03-.08.04-.12.04h-30.87c-.23,0-.44-.11-.57-.29l-24.24-32.99Z"/>
    <path class="cls-2" d="M142.88,386.34l-.15,1.18c-.02.2.05.39.2.51,1.23,1.01,1.93,1.61,2.12,1.82,3.19,3.62,6.86,6.95,10.99,9.99.95.71,2.28,1.97,2.92,2.64.13.14.18.33.14.52-.2.79-.6,1.2-1.21,1.25-8.49.61-16.4.8-23.7.58-3.53-.1-5.34,1.74-7.74,3.66l16.43-22.14Z"/>
    <path class="cls-7" d="M194.43,419.01c.08.12.05.28-.07.37-.07.05-.16.06-.24.03-1.43-.56-4.02-1.49-7.77-2.8-5.98-2.09-11.81-4.47-17.49-7.14-.2-.1-.44-.01-.53.19-.03.06-.04.12-.04.19.49,15.81,1.32,32.08,2.47,48.83.01.2-.14.37-.34.39,0,0-.02,0-.03,0h-9.14c-.14,0-.26-.11-.26-.26,0,0,0-.01,0-.02l2.09-43.39c0-.08.03-.16.08-.22l13.8-18.78c.15-.2.43-.25.63-.1.04.03.07.06.1.1l16.71,22.62Z"/>
  </g>
  <g>
    <path class="cls-9" d="M609.97,320.17c-2.19-.71-4.41-1.1-6.61-1.75-3.46-1.03-6.69-2.66-10.05-3.94-.31-.12-.67,0-.84.29-.73,1.26-1.68,2.41-2.85,3.46l18.82-25.81c.19-.27.5-.42.82-.42h21.24c.08,0,.15.07.15.15,0,.03-.01.07-.03.09l-20.66,27.93Z"/>
    <path class="cls-11" d="M554.86,292.1c.4,0,.75.09,1.07.24.13.06.23.18.26.31.33,1.17.58,1.91.75,2.2,1.82,3.07,3.55,6.18,5.22,9.33l-2.39-3.58s-.04-.03-.06-.02c0,0,0,0,0,0l-.11.08s-.04.06-.02.09c1.45,2.58,3.07,5.4,4.87,8.46,2.08,3.56,5.2,7.4,9.34,11.5,1.88,1.87,3.31,3.21,4.29,4.05.27.22.4.64.39,1.25-.02,5.97-.38,11.27-.33,16.55.07,6.6-.1,13.72-.5,21.36,0,.22-.2.39-.42.38-.09,0-.17-.04-.24-.09l-11.16-9.36c-.2-1.49.24-2.95,1.3-4.36,2.23-2.96,4.03-5.3,5.41-7.03,1.36-1.71,3.17-4.41,3.58-5.85.26-.92.47-1.55.61-1.9-1.3-2.12-2.96-4.52-4.98-7.19-3.5-4.63-7.94-10.59-13.3-17.87-4.55-6.18-9.13-12.32-13.73-18.42-.03-.04-.02-.09.02-.12.01,0,.03-.02.05-.02h10.09Z"/>
    <path class="cls-12" d="M579.46,308.63c-.41.07-.67.21-.79.42-.03.06-.05.12-.05.19l-.09,11.86c0,.14-.11.26-.26.26-.06,0-.12-.02-.17-.06-4.65-3.76-9.38-8.03-13.04-13.12-.06-.08-.57-.72-1.53-1.94-.51-.64-.97-1.33-1.39-2.05-1.66-3.16-3.4-6.27-5.22-9.33-.17-.29-.42-1.03-.75-2.2-.04-.13-.13-.25-.26-.31-.32-.15-.68-.23-1.07-.24l11.49-.04c.44,0,.86.21,1.13.56l11.99,15.99Z"/>
    <path class="cls-7" d="M562.16,304.19c.41.72.88,1.4,1.39,2.05.97,1.22,1.48,1.86,1.53,1.94,3.65,5.09,8.39,9.36,13.04,13.12.11.09.27.08.36-.03.04-.05.06-.11.06-.17l.09-11.86c0-.07.02-.13.05-.19.11-.21.37-.35.79-.42l.92,1.34c.33,15.67.54,31.26.63,46.78,0,1.18.27,2.58.25,3.91l-9.79,13.03c-.18.24-.43.43-.71.54-7,2.79-14.02,5.37-21.02,6.88-2,.43-4.38.67-6.54.66-.12,0-.21-.1-.21-.21,0-.04.01-.08.04-.12l8.11-11.07c1.73-1.39,3.04-2.72,5.59-2.64,5.28.16,10.99.02,17.13-.42.44-.03.73-.33.87-.9.03-.13,0-.27-.1-.37-.47-.48-1.42-1.4-2.11-1.91-2.99-2.2-5.64-4.6-7.94-7.22-.13-.15-.64-.59-1.53-1.32-.11-.09-.16-.23-.15-.37l.11-.86c.14-.15.26-.36.35-.62.74-.11,1.55.26,2.45,1.1l11.16,9.36c.17.14.42.12.56-.05.06-.07.09-.15.09-.24.4-7.64.57-14.76.5-21.36-.05-5.27.31-10.57.33-16.55,0-.61-.13-1.03-.39-1.25-.98-.83-2.41-2.18-4.29-4.05-4.14-4.1-7.25-7.94-9.34-11.5-1.79-3.07-3.42-5.89-4.87-8.46-.02-.03-.01-.07.02-.09l.11-.08s.05-.01.06,0c0,0,0,0,0,0l2.39,3.58Z"/>
    <path class="cls-4" d="M589.62,318.23c1.17-1.05,2.12-2.2,2.85-3.46.17-.29.52-.41.84-.29,3.35,1.28,6.58,2.91,10.05,3.94,2.2.65,4.42,1.04,6.61,1.75-3.65,4.95-7.3,9.89-10.96,14.82-.14.19-.18.37-.12.52.06.15.18.31.35.47-.21.04-.38.14-.51.3-.06.07-.1.16-.1.25-.04.58-.19,1.76-.44,3.54-.44,3.15-.61,6.31-.51,9.47.01.43-.17.85-.51,1.14l-6.14,5.2-2.72-3.73c-.13-.19-.39-.23-.58-.1-.04.03-.07.06-.09.09l-6.37,8.5c.02-1.33-.24-2.73-.25-3.91-.09-15.51-.29-31.1-.63-46.78l7.39,10.06c.11.14.31.18.45.07.03-.02.05-.04.07-.07l1.33-1.8Z"/>
    <path class="cls-6" d="M565.81,354.86c-.9-.85-1.72-1.22-2.45-1.1l13.36-18.04c-.14.35-.34.98-.61,1.9-.41,1.44-2.23,4.14-3.58,5.85-1.38,1.73-3.18,4.08-5.41,7.03-1.07,1.42-1.5,2.87-1.3,4.36Z"/>
    <path class="cls-7" d="M599.23,335.98c.21.16.37.33.48.5-.01,1.14-.07,2.27-.16,3.38-.25,2.94-.04,5.39.15,8.1.01.2.18.35.38.33.07,0,.14-.03.2-.08l4.96-3.93.44.55c-.09.58-.37,1.22-.83,1.9-.11.16-.25.29-.42.38l-.97.53c-.13.07-.25.16-.36.26l-8.31,7.29s-.06.05-.08.08c-.72.91-1.55,1.65-2.47,2.22l-1.23-1.61,6.14-5.2c.33-.28.52-.7.51-1.14-.1-3.17.07-6.32.51-9.47.25-1.78.39-2.96.44-3.54,0-.09.04-.18.1-.25.13-.16.3-.26.51-.3Z"/>
    <path class="cls-4" d="M599.71,336.48l5.54,7.81-4.96,3.93c-.16.12-.39.1-.51-.06-.04-.06-.07-.13-.08-.2-.19-2.71-.4-5.16-.15-8.1.1-1.11.15-2.24.16-3.38Z"/>
    <path class="cls-1" d="M592.25,357.5c.92-.57,1.74-1.31,2.47-2.22.02-.03.05-.06.08-.08l8.31-7.29c.11-.1.23-.19.36-.26l.97-.53c.17-.09.31-.22.42-.38.46-.69.74-1.32.83-1.9l26.93,36.46c.05.07.03.17-.03.22-.03.02-.06.03-.09.03h-22.31c-.16,0-.32-.08-.41-.21l-17.52-23.84Z"/>
    <path class="cls-2" d="M563.01,354.38l-.11.86c-.02.14.04.28.15.37.89.73,1.4,1.17,1.53,1.32,2.31,2.61,4.95,5.02,7.94,7.22.69.51,1.65,1.42,2.11,1.91.09.1.13.24.1.37-.14.57-.43.87-.87.9-6.14.44-11.85.58-17.13.42-2.55-.08-3.86,1.26-5.59,2.64l11.87-16Z"/>
  </g>
  <g>
    <path class="cls-12" d="M276.41,396.87v7.22h26.22v5.68h-26.22v7.2h27.3v5.68h-34.72v-31.47h34.72v5.68h-27.3Z"/>
    <path class="cls-12" d="M306.83,421.51l12.35-10.2-12.2-10.2v-1.14h7.79l9.02,7.81h1.16l9.06-7.81h7.81v1.14l-12.33,10.23,12.24,10.18v1.14h-8.1l-8.78-7.72h-1.08l-8.89,7.72h-8.08v-1.14Z"/>
    <path class="cls-12" d="M345.43,399.96h7.4v1.82h.81c1.52-.8,3.19-1.42,5.01-1.84,1.82-.42,3.71-.64,5.67-.64,2.9,0,5.4.48,7.52,1.44,2.11.96,3.74,2.34,4.88,4.14,1.14,1.8,1.71,3.94,1.71,6.43s-.57,4.63-1.7,6.44c-1.13,1.81-2.75,3.19-4.86,4.15-2.11.96-4.59,1.44-7.44,1.44-2.06,0-4.01-.24-5.85-.72-1.84-.48-3.49-1.17-4.95-2.06h-.81v10.88h-7.4v-31.47ZM367.08,417.22c1.19-.53,2.1-1.3,2.73-2.3.63-1,.94-2.21.94-3.61s-.32-2.59-.95-3.6c-.64-1.01-1.56-1.78-2.75-2.32-1.2-.53-2.63-.8-4.28-.8s-3.4.24-5.14.72c-1.74.48-3.34,1.16-4.8,2.04v7.92c1.42.85,3.01,1.52,4.77,2.01,1.76.49,3.5.74,5.21.74s3.08-.27,4.27-.8Z"/>
    <path class="cls-12" d="M383,399.96h7.4v2.44h1.12c1.27-1.01,2.69-1.78,4.26-2.3,1.56-.53,3.34-.79,5.31-.79.97,0,1.99.07,3.06.21,1.08.14,1.98.33,2.71.56v5.51h-1.14c-.48-.29-1.24-.53-2.26-.71-1.03-.18-2.05-.27-3.07-.27-1.89,0-3.65.31-5.28.93-1.63.62-3.2,1.53-4.71,2.73v14.4h-7.4v-22.69Z"/>
    <path class="cls-12" d="M432.81,400.63c2.38.88,4.21,2.17,5.46,3.85,1.26,1.68,1.89,3.69,1.89,6.01v2.02l-.81.9h-23.74c.47,1.71,1.53,3.01,3.19,3.88,1.66.88,3.85,1.32,6.57,1.32,2.47,0,4.81-.23,7-.7,2.19-.47,4.04-1.17,5.53-2.11h1.1v4.92c-1.54.82-3.5,1.46-5.88,1.92-2.39.46-4.94.69-7.66.69-3.64,0-6.78-.48-9.4-1.44-2.63-.96-4.63-2.34-6.02-4.16s-2.09-3.97-2.09-6.47.64-4.65,1.93-6.44c1.29-1.79,3.15-3.16,5.6-4.1,2.44-.94,5.37-1.42,8.78-1.42s6.17.44,8.56,1.33ZM432.81,409.13c-.25-1.65-1.14-2.9-2.67-3.73-1.53-.83-3.49-1.25-5.87-1.25s-4.38.42-5.85,1.25c-1.47.83-2.42,2.08-2.84,3.73h17.23Z"/>
    <path class="cls-12" d="M451.15,422.75c-2.58-.39-4.88-.93-6.88-1.64v-4.89h1.1c2.18.79,4.42,1.39,6.73,1.79,2.3.4,4.83.6,7.58.6,2.4,0,4.28-.19,5.63-.58,1.35-.39,2.03-.99,2.03-1.81,0-.59-.35-1.03-1.04-1.34-.69-.31-1.54-.52-2.54-.64-.99-.12-2.32-.22-3.99-.31l-1.4-.07c-2.91-.16-5.39-.41-7.45-.75-2.05-.34-3.83-.99-5.33-1.96s-2.25-2.38-2.25-4.22c0-1.62.58-3.01,1.76-4.15,1.17-1.14,2.86-2.01,5.07-2.6,2.21-.59,4.85-.89,7.92-.89,2.56,0,5.1.2,7.64.59,2.53.39,4.78.94,6.76,1.65v4.89h-1.14c-2.53-.86-4.88-1.48-7.05-1.87-2.17-.38-4.58-.57-7.23-.57-4.45,0-6.67.82-6.67,2.46,0,.57.26,1.01.78,1.31.52.3,1.2.5,2.05.61.85.11,2.11.22,3.77.34l.5.04c3.77.26,6.76.56,8.96.9,2.2.34,4.07.99,5.61,1.95,1.54.97,2.3,2.38,2.3,4.26,0,1.6-.61,2.95-1.82,4.07-1.22,1.12-2.97,1.96-5.26,2.53-2.29.57-5.03.86-8.22.86-2.69,0-5.33-.19-7.91-.58Z"/>
    <path class="cls-12" d="M484.92,422.75c-2.58-.39-4.88-.93-6.88-1.64v-4.89h1.1c2.18.79,4.42,1.39,6.73,1.79,2.3.4,4.83.6,7.58.6,2.4,0,4.28-.19,5.63-.58,1.35-.39,2.03-.99,2.03-1.81,0-.59-.35-1.03-1.04-1.34-.69-.31-1.54-.52-2.54-.64-.99-.12-2.32-.22-3.99-.31l-1.4-.07c-2.91-.16-5.39-.41-7.45-.75-2.05-.34-3.83-.99-5.33-1.96s-2.25-2.38-2.25-4.22c0-1.62.58-3.01,1.76-4.15,1.17-1.14,2.86-2.01,5.07-2.6,2.21-.59,4.85-.89,7.92-.89,2.56,0,5.1.2,7.64.59,2.53.39,4.78.94,6.76,1.65v4.89h-1.14c-2.53-.86-4.88-1.48-7.05-1.87-2.17-.38-4.58-.57-7.23-.57-4.45,0-6.67.82-6.67,2.46,0,.57.26,1.01.78,1.31.52.3,1.2.5,2.05.61.85.11,2.11.22,3.77.34l.5.04c3.77.26,6.76.56,8.96.9,2.2.34,4.07.99,5.61,1.95,1.54.97,2.3,2.38,2.3,4.26,0,1.6-.61,2.95-1.82,4.07-1.22,1.12-2.97,1.96-5.26,2.53-2.29.57-5.03.86-8.22.86-2.69,0-5.33-.19-7.91-.58Z"/>
    <path class="cls-12" d="M527.45,422.65v-31.47h7.4v31.47h-7.4Z"/>
    <path class="cls-12" d="M541.76,399.96h7.4v2.02h1.12c1.46-.88,3.08-1.54,4.84-2,1.76-.45,3.6-.68,5.5-.68,2.59,0,4.84.42,6.76,1.27,1.92.85,3.39,2.07,4.42,3.68,1.03,1.6,1.55,3.51,1.55,5.74v12.66h-7.42v-11.81c0-1.3-.29-2.42-.86-3.36-.57-.94-1.39-1.65-2.46-2.15-1.07-.5-2.33-.75-3.8-.75-1.68,0-3.36.27-5.05.8-1.68.53-3.22,1.28-4.61,2.25v15.01h-7.4v-22.69Z"/>
    <path class="cls-12" d="M585.31,421.91c-2.67-.95-4.71-2.33-6.11-4.14-1.4-1.81-2.11-3.96-2.11-6.46s.7-4.65,2.11-6.45,3.44-3.17,6.1-4.13c2.66-.95,5.84-1.43,9.55-1.43,2.62,0,5.09.23,7.41.69,2.32.46,4.25,1.1,5.78,1.92v5.49h-1.14c-1.46-.86-3.26-1.55-5.4-2.05-2.14-.5-4.28-.76-6.43-.76s-4.04.27-5.57.8c-1.54.53-2.71,1.3-3.51,2.3-.8,1-1.21,2.21-1.21,3.61s.4,2.61,1.21,3.61c.8,1,1.98,1.77,3.51,2.3,1.54.53,3.39.8,5.57.8s4.31-.25,6.44-.75,3.92-1.18,5.39-2.04h1.14v5.49c-1.55.82-3.48,1.46-5.8,1.92-2.32.46-4.77.69-7.36.69-3.7,0-6.89-.47-9.56-1.43Z"/>
    <path class="cls-12" d="M614.51,415.04h7.53v7.61h-7.53v-7.61Z"/>
  </g>
  <g>
    <path d="M329.45,300.6h12.56v68.3h-13.03v-36.49c0-3.06.13-6.34.38-9.85l-.29-.2c-1.27,2.41-3.2,5.53-5.8,9.37l-15.41,23.03h-3.62l-15.32-23.03c-2.73-3.97-4.69-6.99-5.9-9.07l-.29.1c.32,2.93.48,6.21.48,9.85v36.29h-13.03v-68.3h12.56l23.5,35.22,23.21-35.22Z"/>
    <path d="M373.97,319.63c15.67,0,23.5,6.34,23.5,19.03v30.25h-11.32c0-2.6.13-5.37.38-8.29h-.28c-1.46,2.8-3.68,5.01-6.66,6.63-2.98,1.63-6.22,2.44-9.7,2.44-4.95,0-9.09-1.35-12.42-4.05-3.33-2.7-4.99-6.52-4.99-11.46s1.79-9.01,5.38-11.81c3.58-2.8,8.07-4.2,13.46-4.2s9.77.98,13.51,2.93v-1.76c0-6.24-4.06-9.37-12.18-9.37-4.38,0-9.07.98-14.08,2.93l-2.66-9.56c6.09-2.47,12.11-3.71,18.08-3.71ZM373.31,359.44c3.04,0,5.68-.83,7.9-2.49,2.22-1.66,3.52-3.98,3.9-6.98-3.3-2.02-7.04-3.02-11.23-3.02-2.6,0-4.73.54-6.37,1.61s-2.47,2.65-2.47,4.73.81,3.55,2.43,4.59c1.62,1.04,3.57,1.56,5.85,1.56Z"/>
    <path d="M409.94,390.46v-69.76h12.18c0,2.47-.22,5.27-.67,8.39h.19c1.39-2.73,3.6-4.99,6.61-6.78,3.01-1.79,6.45-2.68,10.32-2.68,6.41,0,11.69,2.29,15.84,6.88,4.15,4.59,6.23,10.65,6.23,18.2s-2.13,13.64-6.37,18.29c-4.25,4.65-9.67,6.98-16.27,6.98-3.74,0-6.99-.8-9.75-2.39-2.76-1.59-4.8-3.69-6.14-6.29l-.19.1c.44,2.93.67,6.77.67,11.51v17.56h-12.65ZM434.96,358.85c3.87,0,7.02-1.28,9.47-3.85,2.44-2.57,3.66-5.9,3.66-10s-1.21-7.58-3.62-10.24c-2.41-2.67-5.52-4-9.32-4s-6.8,1.3-9.18,3.9c-2.38,2.6-3.57,5.92-3.57,9.95s1.16,7.66,3.47,10.29c2.31,2.63,5.34,3.95,9.09,3.95Z"/>
    <path d="M485.28,370.07c-9.89,0-14.84-5.63-14.84-16.88v-52.59h12.65v51.22c0,2.54.43,4.38,1.28,5.51.86,1.14,2.27,1.71,4.23,1.71,1.46,0,2.82-.23,4.09-.68l2.28,9.85c-2.79,1.24-6.03,1.85-9.71,1.85Z"/>
    <path d="M546.46,343.82c0,1.89-.13,3.58-.38,5.07h-34.53c.38,3.25,1.81,5.82,4.28,7.71,2.47,1.89,5.39,2.83,8.75,2.83,5.39,0,9.99-1.63,13.79-4.88l5.61,8c-4.76,4.94-11.39,7.42-19.88,7.42-7.48,0-13.57-2.23-18.27-6.68-4.69-4.45-7.04-10.59-7.04-18.39s2.41-13.81,7.23-18.39c4.82-4.59,10.78-6.88,17.89-6.88,6.72,0,12.16,2.1,16.32,6.29,4.15,4.2,6.23,10.16,6.23,17.9ZM531.33,332.7c-2.03-1.82-4.63-2.73-7.8-2.73s-5.84.89-7.99,2.68c-2.16,1.79-3.46,4.41-3.9,7.85h22.83c-.06-3.38-1.11-5.98-3.14-7.8Z"/>
  </g>
</svg>