<?xml version="1.0" encoding="UTF-8"?>
<svg id="Layer_1" data-name="Layer 1" xmlns="http://www.w3.org/2000/svg" xmlns:xlink="http://www.w3.org/1999/xlink" viewBox="0 0 700 700">
  <defs>
    <style>
      .cls-1 {
        fill: #23432a;
      }

      .cls-2 {
        fill: #921b31;
      }

      .cls-3 {
        fill: none;
      }

      .cls-4 {
        fill: #b17f46;
      }

      .cls-5 {
        fill: #763121;
      }

      .cls-6 {
        fill: #a55d37;
      }

      .cls-7 {
        fill: #63151a;
      }

      .cls-8 {
        fill: #f3a952;
      }

      .cls-9 {
        fill: #a79e5d;
      }

      .cls-10 {
        clip-path: url(#clippath);
      }

      .cls-11 {
        fill: #de3230;
      }

      .cls-12 {
        fill: #ea532f;
      }
    </style>
    <clipPath id="clippath">
      <path class="cls-3" d="M355.67,261.15c.31,1.13,1.31,2.5,2.98,4.1l11.7,15.48,3.75,5.29,7.55,10.79c.33.47.99.59,1.47.25.09-.06.17-.14.24-.23,3.88-5.08,6.44-8.29,7.68-9.64,1.76-1.91,3.41-4.02,4.95-6.33,3.9-5.89,8.53-12.29,13.88-19.21,2.07-2.66,7.54-10.08,16.43-22.27,2.12-2.9,4.79-7.29,5.09-9.96,1.39-12.21,3.9-24.2,5.73-36.34.06-.39-.21-.76-.61-.82-.17-.02-.34,0-.48.1-3.78,2.35-7.35,4.24-10.72,5.68-10.73,4.59-20.84,7.25-29.16-3.1-3.11-3.86-6.07-8.43-8.9-13.74-8.03-15.12-14.31-28.14-20.92-43.68-2.46-5.78-5.02-11.51-7.69-17.18l-.75-2.26c-.13-.41-.56-.63-.97-.5-.22.07-.4.23-.48.45-9.72,23.52-20.36,45.93-31.92,67.23-3.98,7.33-10.34,16.94-19.99,16.63-9.04-.3-19.15-5.34-27.91-9.68-.18-.09-.4-.02-.49.17-.03.07-.05.15-.03.23l5.08,32.45c.08.54.55.94,1.1.94h45.7c.9,0,1.75.43,2.29,1.15l25.41,34.02ZM387.45,320.84l-3.91,5.3c-.31.43-.91.52-1.33.21-.08-.06-.15-.13-.21-.21l-21.81-29.67-2.71-3.96-35.36-47.18c-.78-1.05-2.01-1.66-3.32-1.66l-33.89.1h-29.75c-.14,0-.25.12-.24.25,0,.05.02.1.05.14,13.58,17.99,27.08,36.1,40.51,54.32,15.82,21.47,28.9,39.03,39.24,52.7,5.97,7.88,10.86,14.96,14.69,21.22l-39.41,53.22c-.29.77-.64,1.38-1.05,1.83l-35.02,47.19-23.93,32.64c-.2.28-.13.66.15.86.1.07.22.11.35.11,6.37.03,13.38-.68,19.28-1.95,20.65-4.47,41.36-12.06,62.01-20.31.84-.33,1.57-.88,2.11-1.6l28.87-38.44,18.79-25.08c.4-.55,1.17-.66,1.72-.26.1.08.19.17.27.27l8.02,11,3.64,4.76,51.68,70.32c.28.39.73.61,1.22.61h65.81c.25,0,.44-.2.44-.46,0-.09-.03-.19-.09-.26l-79.43-107.56-1.3-1.62-16.33-23.04c-.32-.51-.79-1.01-1.41-1.48-.5-.46-.84-.92-1.02-1.37-.18-.46-.07-.98.35-1.54,10.81-14.56,21.59-29.13,32.34-43.72l60.94-82.37c.15-.19.12-.47-.08-.62-.08-.06-.18-.1-.28-.1h-62.64c-.96,0-1.87.46-2.43,1.24l-55.52,76.14ZM149.01,304.18c6.49,14.23,12.69,28.58,18.6,43.07,2.94,7.19,5.35,14.38,7.22,21.57,1.08,4.12,1.39,8.56.93,13.32-.03.3-.1.61-.2.9-1.44,4.38-5.06,8.05-10.86,11.03-5,2.56-9.62,4.75-13.86,6.57-.36.16-.53.58-.38.94.05.12.13.22.23.29,5.77,4.2,11.72,8.34,17.86,12.44,29.58,19.71,50.49,33.77,62.75,42.18,5.81,3.99,13.37,9.18,13.83,14.57.51,6.02-.71,11.68-3.65,16.99-.11.19-.05.43.13.56l.27.2c.1.07.24.04.31-.07l51.94-70.58,2.72-3.74,31.06-41.96c.24-.32.24-.75,0-1.07l-40.24-54.48c-.34-.45-.97-.55-1.42-.22-.09.07-.18.16-.24.26-1.45,2.17-3.26,2.76-5.43,1.78-3.32-1.51-8.25-4.56-14.77-9.16-10.77-7.59-24.93-17.98-42.48-31.19-.32-.25-.79-.2-1.05.13-.11.14-.16.31-.16.49.1,5.36-.17,10.58-.81,15.69-.72,5.65-3.91,8.78-9.55,9.38-5.17.56-10.9.65-17.19.26-11.2-.69-26.18-2.05-44.95-4.07-.83-.09-1.57.5-1.67,1.32-.07.54.28,1.4,1.05,2.59ZM448.55,388.31c-.06.24.23.82.86,1.75l2.87,3.9,35.78,48.51c.45.61,1.31.75,1.92.31l61.74-43.27c.34-.23.42-.68.19-1.02-.08-.11-.18-.2-.31-.26l-11.13-5.1c-7.76-3.87-15.39-8.92-13.93-18.91.56-3.9,2.16-9.4,4.8-16.51,4.66-12.5,10.51-26.16,17.57-40.99.51-1.06,1.06-2.59,1.65-4.59.46-.42.53-.9.2-1.44-.15-.26-.45-.41-.76-.38-9.22,1.02-18.42,2.15-27.59,3.39-5.74.77-14.3,1.12-25.68,1.05-4.97-.41-10.94-.24-12.66-6.12-.2-.64-.87-1.01-1.52-.81-.25.08-.47.23-.63.44l-44.99,61.97c-.45.61-.58,1.39-.37,2.12.51,1.71,1.75,3.36,3.72,4.96.11.09.21.19.29.3l7.67,11.23c.05.07.15.09.22.03.03-.02.04-.04.06-.07.04-.13.06-.3.05-.5Z"/>
    </clipPath>
  </defs>
  <g class="cls-10">
    <g>
      <path class="cls-3" d="M358.64,120.33c-.69,1.26-1.03,2.49-1.03,3.68-.08,23.57.27,47.13,1.03,70.68" vector-effect="non-scaling-stroke"/>
      <path class="cls-3" d="M358.64,194.68l-.94-12.52c0-.1-.09-.18-.2-.18h-.42c-.2,0-.35.16-.35.35l-.13,52.28" vector-effect="non-scaling-stroke"/>
      <path class="cls-3" d="M356.6,234.61c.04.47.03.84-.04,1.1-.09.33-.43.52-.76.42-.07-.02-.14-.05-.2-.1-10.05-7.37-17.93-16.59-23.65-27.67-.07-.13-.24-.19-.37-.12,0,0-.01,0-.02.01l-.37.25c-.14.09-.2.27-.13.43,5.5,12.78,13.6,23.49,24.28,32.15.32.26.52.63.56,1.03.77,6.33.69,12.67-.24,19.02" vector-effect="non-scaling-stroke"/>
      <path class="cls-3" d="M374.11,286c14.64-14.98,26.7-31.69,36.19-50.13,2.08-4.04,4.24-8.12,6.5-12.25.16-.3.05-.67-.25-.83,0,0,0,0,0,0h-.03c-.31-.16-.67-.03-.82.27,0,0,0,0,0,0-10.72,22.66-25.83,41.88-45.33,57.66" vector-effect="non-scaling-stroke"/>
      <path class="cls-3" d="M358.66,265.24l.09-39.22" vector-effect="non-scaling-stroke"/>
      <path class="cls-3" d="M358.75,226.02l-.1-31.33" vector-effect="non-scaling-stroke"/>
      <path class="cls-3" d="M358.75,226.02c-.17-.41-.41-.67-.69-.78-.43-.16-.92.06-1.07.5-.03.08-.05.17-.05.26-.1,2.79-.2,5.66-.33,8.62" vector-effect="non-scaling-stroke"/>
      <path class="cls-3" d="M447.46,326.55c-6.45-2.09-13-3.24-19.49-5.17-10.22-3.04-19.74-7.84-29.63-11.62-.93-.36-1.98,0-2.47.86-2.16,3.72-4.97,7.12-8.41,10.22" vector-effect="non-scaling-stroke"/>
      <path class="cls-3" d="M415.79,373.19c-.62.13-1.13.43-1.52.89-.18.21-.28.47-.3.75-.13,1.72-.56,5.2-1.3,10.45-1.3,9.29-1.81,18.6-1.52,27.95.04,1.28-.51,2.51-1.49,3.35l-18.11,15.33" vector-effect="non-scaling-stroke"/>
      <path class="cls-3" d="M417.2,374.67c-.03,3.36-.2,6.68-.48,9.97-.75,8.67-.1,15.9.44,23.9.04.58.54,1.03,1.13.99.22-.01.42-.09.59-.23l14.64-11.59" vector-effect="non-scaling-stroke"/>
      <path class="cls-3" d="M434.83,399.33c-.26,1.72-1.08,3.59-2.45,5.61-.32.47-.74.86-1.24,1.13l-2.85,1.56c-.38.21-.74.46-1.07.76l-24.5,21.5c-.09.08-.17.16-.24.25-2.14,2.68-4.56,4.86-7.27,6.54" vector-effect="non-scaling-stroke"/>
      <path class="cls-3" d="M360.19,296.47c.98,46.23,1.59,92.22,1.84,137.97.03,3.48.78,7.61.73,11.53" vector-effect="non-scaling-stroke"/>
      <path class="cls-3" d="M273.92,474.65c5.12-4.1,8.98-8.02,16.5-7.8,15.58.47,32.42.06,50.53-1.23,1.3-.09,2.16-.97,2.58-2.66.1-.39,0-.81-.29-1.1-1.37-1.43-4.2-4.12-6.23-5.63-8.82-6.48-16.63-13.58-23.43-21.29-.39-.44-1.9-1.74-4.51-3.89-.32-.26-.48-.67-.43-1.09l.31-2.53" vector-effect="non-scaling-stroke"/>
      <path class="cls-3" d="M309.99,425.63c2.17-.33,4.58.75,7.23,3.26" vector-effect="non-scaling-stroke"/>
      <path class="cls-3" d="M357.48,292.51c-1.21.21-1.98.62-2.32,1.24-.09.17-.14.36-.14.56l-.26,34.97c0,.42-.34.76-.75.76-.18,0-.35-.06-.49-.17-13.71-11.08-27.67-23.68-38.45-38.7-.17-.23-1.67-2.13-4.53-5.72-1.51-1.9-2.87-3.92-4.1-6.04" vector-effect="non-scaling-stroke"/>
      <path class="cls-3" d="M284.91,243.77c1.17.02,2.22.25,3.17.71.38.18.66.52.77.92.96,3.46,1.7,5.63,2.21,6.49,5.36,9.04,10.48,18.22,15.39,27.53" vector-effect="non-scaling-stroke"/>
      <path class="cls-3" d="M306.44,279.41l-7.04-10.56c-.03-.06-.11-.09-.18-.05,0,0-.01,0-.02.01l-.33.25c-.09.06-.11.18-.05.27,4.27,7.6,9.06,15.92,14.35,24.96,6.15,10.51,15.33,21.82,27.54,33.92,5.56,5.5,9.77,9.48,12.65,11.93.78.66,1.17,1.89,1.16,3.69-.07,17.62-1.11,33.26-.97,48.81.19,19.47-.3,40.47-1.48,63-.03.65-.58,1.15-1.23,1.13-.26-.01-.51-.11-.71-.28l-32.93-27.62" vector-effect="non-scaling-stroke"/>
      <path class="cls-3" d="M317.22,428.89c-.58-4.4.7-8.7,3.85-12.87,6.58-8.72,11.9-15.64,15.96-20.75,4-5.04,9.35-13,10.57-17.26.78-2.7,1.37-4.57,1.79-5.6" vector-effect="non-scaling-stroke"/>
      <path class="cls-3" d="M296.88,414.43c-1.29-1.94-1.93-3.35-1.92-4.23.13-25.79-5.68-50.12-17.43-72.98-.04-.08-.14-.12-.22-.08,0,0,0,0,0,0-.08.04-.11.13-.08.21,0,0,0,0,0,0,6.04,13.27,9.88,26.52,11.51,39.77,1.13,9.08,1.07,18.47-.16,28.17-.03.34-.34.58-.67.55-.12-.01-.23-.06-.32-.13l-49.06-36.91" vector-effect="non-scaling-stroke"/>
      <path class="cls-3" d="M238.53,368.81l-12.13-9.9c-.48-.39-.8-.94-.9-1.54-1.47-8.6-2.55-13.71-3.24-15.33-1.26-2.89-2.42-5.99-3.49-9.3-.95-2.92-4.01-8.62-9.18-17.09-.13-.21-.4-.27-.61-.15,0,0,0,0,0,0h-.01c-.15.1-.2.29-.12.44,6.14,11.47,9.87,23.75,11.2,36.86.05.47-.3.9-.77.95-.2.02-.41-.03-.57-.15l-12.7-8.54c-.11-.08-.21-.18-.3-.29-.82-1.14-1.89-2.19-3.21-3.14-10.81-7.77-22.21-16.29-34.21-25.55-5.44-4.21-12.49-8.31-17.31-13.23-.1-.1-.39-.25-.86-.44-.22-.09-.42-.22-.61-.39-.16-.15-.42-.14-.57.02-.06.07-.1.15-.11.24-.03.58.04,1.22.22,1.91" vector-effect="non-scaling-stroke"/>
      <path class="cls-3" d="M238.53,368.81l-4.08-2.3c-.34-.18-.76-.05-.94.29-.13.24-.1.53.06.75,2.22,2.74,5.06,5.49,8.53,8.24,4.4,3.49,10.2,7.98,17.41,13.48.66.5.78,1.43.28,2.09-.04.05-.08.1-.13.15-.48.48-1.28.92-2.41,1.31-15.73,5.51-31.35,8.28-48.13,9.72t0,0c8.77,1.52,17.51,1.47,26.19-.13,12.55-2.32,22.02-4.45,28.42-6.38,1.67-.51,3.28-.06,4.8,1.36,7.41,6.92,14.82,13.15,22.25,18.7.43.32.68.82.68,1.35v.56c0,.45.37.81.81.81.09,0,.18-.02.27-.05l1.61-.56" vector-effect="non-scaling-stroke"/>
      <path class="cls-3" d="M496.72,314.76l11.04,1.41M507.76,316.19c-6.86,2.72-10.26,7-14.39,14.18" vector-effect="non-scaling-stroke"/>
      <path class="cls-3" d="M493.37,330.37l2.51-5.73c.12-.25.01-.54-.24-.66-.21-.1-.46-.04-.6.14-1.18,1.38-2.17,3.02-2.98,4.93-.68,1.59-1.4,3.15-2.16,4.68-4.1,8.27-6.56,17-7.38,26.21-.1,1.16-.7,2.22-1.65,2.9-11.09,8.01-21.42,15.57-30.98,22.7-1.12.83-1.57,1.75-1.35,2.77" vector-effect="non-scaling-stroke"/>
      <path class="cls-3" d="M550.56,312.14c-.34-.44-.78-.64-1.33-.61-.19,0-.37.07-.52.18-5.11,3.66-10.08,7.67-14.91,12.01-9.41,8.45-20.93,14.73-31.06,22.74" vector-effect="non-scaling-stroke"/>
      <path class="cls-3" d="M502.73,346.46l-15.31,11.34c-.21.16-.5.12-.66-.08-.07-.09-.1-.2-.1-.31.34-9.51,2.58-18.52,6.71-27.04" vector-effect="non-scaling-stroke"/>
      <path class="cls-3" d="M540.47,393.14c-13.14,5.84-26.38,8.78-39.75,8.83-14.66.05-29.56-2.79-44.71-8.52-.07-.03-.14-.06-.2-.1l-2.73-1.79c-.24-.16-.57-.09-.72.15-.06.08-.09.18-.09.28v1.98" vector-effect="non-scaling-stroke"/>
      <path class="cls-3" d="M449.41,390.07c7.02-4.4,13.74-9.39,20.15-14.99,3.08-2.7,6.35-5.39,9.8-8.07,8.37-6.49,15.5-12.74,24.13-19.66.19-.16.22-.45.07-.64-.07-.09-.17-.14-.28-.16l-.55-.08" vector-effect="non-scaling-stroke"/>
    </g>
  </g>
  <path class="cls-12" d="M358.64,120.33c-.69,1.26-1.03,2.49-1.03,3.68-.08,23.57.27,47.13,1.03,70.68l-.94-12.52c0-.1-.09-.18-.2-.18h-.42c-.2,0-.35.16-.35.35l-.13,52.28c.04.47.03.84-.04,1.1-.09.33-.43.52-.76.42-.07-.02-.14-.05-.2-.1-10.05-7.37-17.93-16.59-23.65-27.67-.07-.13-.24-.19-.37-.12,0,0-.01,0-.02.01l-.37.25c-.14.09-.2.27-.13.43,5.5,12.78,13.6,23.49,24.28,32.15.32.26.52.63.56,1.03.77,6.33.69,12.67-.24,19.02l-25.41-34.02c-.54-.72-1.39-1.15-2.29-1.15h-45.7c-.55,0-1.02-.4-1.1-.94l-5.08-32.45c-.04-.2.1-.39.3-.42.08-.01.16,0,.23.03,8.75,4.34,18.87,9.38,27.91,9.68,9.66.31,16.01-9.3,19.99-16.63,11.57-21.3,22.21-43.71,31.92-67.23.16-.4.61-.59,1-.43.21.09.38.26.45.48l.75,2.26Z"/>
  <path class="cls-8" d="M374.11,286c14.64-14.98,26.7-31.69,36.19-50.13,2.08-4.04,4.24-8.12,6.5-12.25.16-.3.05-.67-.25-.83,0,0,0,0,0,0h-.03c-.31-.16-.67-.03-.82.27,0,0,0,0,0,0-10.72,22.66-25.83,41.88-45.33,57.66l-11.7-15.48.09-39.22-.1-31.33c-.77-23.55-1.11-47.11-1.03-70.68,0-1.19.34-2.41,1.03-3.68,2.67,5.67,5.23,11.4,7.69,17.18,6.61,15.54,12.89,28.56,20.92,43.68,2.83,5.3,5.79,9.88,8.9,13.74,8.32,10.35,18.43,7.69,29.16,3.1,3.37-1.44,6.94-3.33,10.72-5.68.34-.21.78-.1.99.24.09.14.12.31.1.48-1.83,12.14-4.34,24.14-5.73,36.34-.3,2.67-2.97,7.05-5.09,9.96-8.89,12.18-14.37,19.61-16.43,22.27-5.36,6.92-9.98,13.32-13.88,19.21-1.54,2.31-3.18,4.42-4.95,6.33-1.24,1.35-3.8,4.57-7.68,9.64-.36.46-1.02.56-1.48.21-.09-.07-.16-.14-.22-.23l-7.55-10.79Z"/>
  <path class="cls-6" d="M358.64,194.68l.1,31.33c-.17-.41-.41-.67-.69-.78-.43-.16-.92.06-1.07.5-.03.08-.05.17-.05.26-.1,2.79-.2,5.66-.33,8.62l.13-52.28c0-.2.16-.35.35-.35h.42c.1,0,.19.08.2.18l.94,12.52Z"/>
  <path class="cls-7" d="M356.6,234.61c.12-2.96.23-5.83.33-8.62.02-.46.4-.82.86-.81.09,0,.18.02.26.05.29.11.52.38.69.78l-.09,39.22c-1.67-1.6-2.67-2.96-2.98-4.1.92-6.35,1-12.69.24-19.02-.04-.4-.24-.77-.56-1.03-10.68-8.65-18.78-19.37-24.28-32.15-.07-.16-.01-.34.13-.43l.37-.25c.13-.08.3-.05.38.08,0,0,0,.01.01.02,5.72,11.08,13.61,20.3,23.65,27.67.27.2.66.14.86-.13.04-.06.08-.12.1-.2.07-.26.08-.63.04-1.1Z"/>
  <path class="cls-7" d="M374.11,286l-3.75-5.29c19.5-15.78,34.61-35,45.33-57.66.15-.31.51-.44.82-.29,0,0,0,0,0,0h.03c.3.17.42.54.27.84,0,0,0,0,0,0-2.26,4.13-4.43,8.21-6.5,12.25-9.49,18.45-21.55,35.16-36.19,50.13Z"/>
  <path class="cls-9" d="M447.46,326.55c-6.45-2.09-13-3.24-19.49-5.17-10.22-3.04-19.74-7.84-29.63-11.62-.93-.36-1.98,0-2.47.86-2.16,3.72-4.97,7.12-8.41,10.22l55.52-76.14c.57-.78,1.47-1.24,2.43-1.24h62.64c.25,0,.45.2.45.44,0,.1-.03.2-.1.28l-60.94,82.37Z"/>
  <path class="cls-11" d="M284.91,243.77c1.17.02,2.22.25,3.17.71.38.18.66.52.77.92.96,3.46,1.7,5.63,2.21,6.49,5.36,9.04,10.48,18.22,15.39,27.53l-7.04-10.56c-.03-.06-.11-.09-.18-.05,0,0-.01,0-.02.01l-.33.25c-.09.06-.11.18-.05.27,4.27,7.6,9.06,15.92,14.35,24.96,6.15,10.51,15.33,21.82,27.54,33.92,5.56,5.5,9.77,9.48,12.65,11.93.78.66,1.17,1.89,1.16,3.69-.07,17.62-1.11,33.26-.97,48.81.19,19.47-.3,40.47-1.48,63-.03.65-.58,1.15-1.23,1.13-.26-.01-.51-.11-.71-.28l-32.93-27.62c-.58-4.4.7-8.7,3.85-12.87,6.58-8.72,11.9-15.64,15.96-20.75,4-5.04,9.35-13,10.57-17.26.78-2.7,1.37-4.57,1.79-5.6-3.83-6.26-8.73-13.34-14.69-21.22-10.34-13.67-23.41-31.23-39.24-52.7-13.42-18.22-26.93-36.33-40.51-54.32-.08-.11-.05-.27.06-.35.04-.03.09-.04.14-.05h29.75Z"/>
  <path class="cls-12" d="M357.48,292.51c-1.21.21-1.98.62-2.32,1.24-.09.17-.14.36-.14.56l-.26,34.97c0,.42-.34.76-.75.76-.18,0-.35-.06-.49-.17-13.71-11.08-27.67-23.68-38.45-38.7-.17-.23-1.67-2.13-4.53-5.72-1.51-1.9-2.87-3.92-4.1-6.04-4.9-9.31-10.03-18.48-15.39-27.53-.51-.86-1.25-3.03-2.21-6.49-.11-.4-.39-.73-.77-.92-.94-.45-2-.69-3.17-.71l33.89-.1c1.31,0,2.54.62,3.32,1.66l35.36,47.18Z"/>
  <path class="cls-7" d="M306.44,279.41c1.22,2.13,2.59,4.14,4.1,6.04,2.85,3.58,4.36,5.49,4.53,5.72,10.78,15.02,24.74,27.62,38.45,38.7.32.27.8.22,1.07-.1.11-.14.18-.31.17-.49l.26-34.97c0-.2.05-.39.14-.56.33-.62,1.1-1.03,2.32-1.24l2.71,3.96c.98,46.23,1.59,92.22,1.84,137.97.03,3.48.78,7.61.73,11.53l-28.87,38.44c-.54.72-1.27,1.27-2.11,1.6-20.66,8.24-41.37,15.83-62.01,20.31-5.9,1.27-12.91,1.98-19.28,1.95-.34,0-.61-.28-.61-.62,0-.12.04-.25.11-.35l23.93-32.64c5.12-4.1,8.98-8.02,16.5-7.8,15.58.47,32.42.06,50.53-1.23,1.3-.09,2.16-.97,2.58-2.66.1-.39,0-.81-.29-1.1-1.37-1.43-4.2-4.12-6.23-5.63-8.82-6.48-16.63-13.58-23.43-21.29-.39-.44-1.9-1.74-4.51-3.89-.32-.26-.48-.67-.43-1.09l.31-2.53c.41-.45.76-1.06,1.05-1.83,2.17-.33,4.58.75,7.23,3.26l32.93,27.62c.5.42,1.24.36,1.66-.14.17-.2.27-.45.28-.71,1.18-22.53,1.67-43.53,1.48-63-.14-15.56.9-31.19.97-48.81,0-1.8-.38-3.03-1.16-3.69-2.88-2.45-7.1-6.43-12.65-11.93-12.21-12.11-21.39-23.41-27.54-33.92-5.29-9.04-10.08-17.37-14.35-24.96-.06-.1-.03-.22.05-.27l.33-.25c.06-.05.14-.04.18.02,0,0,0,.01.01.02l7.04,10.56Z"/>
  <path class="cls-11" d="M296.88,414.43c-1.29-1.94-1.93-3.35-1.92-4.23.13-25.79-5.68-50.12-17.43-72.98-.04-.08-.14-.12-.22-.08,0,0,0,0,0,0-.08.04-.11.13-.08.21,0,0,0,0,0,0,6.04,13.27,9.88,26.52,11.51,39.77,1.13,9.08,1.07,18.47-.16,28.17-.03.34-.34.58-.67.55-.12-.01-.23-.06-.32-.13l-49.06-36.91-12.13-9.9c-.48-.39-.8-.94-.9-1.54-1.47-8.6-2.55-13.71-3.24-15.33-1.26-2.89-2.42-5.99-3.49-9.3-.95-2.92-4.01-8.62-9.18-17.09-.13-.21-.4-.27-.61-.15,0,0,0,0,0,0h-.01c-.15.1-.2.29-.12.44,6.14,11.47,9.87,23.75,11.2,36.86.05.47-.3.9-.77.95-.2.02-.41-.03-.57-.15l-12.7-8.54c-.11-.08-.21-.18-.3-.29-.82-1.14-1.89-2.19-3.21-3.14-10.81-7.77-22.21-16.29-34.21-25.55-5.44-4.21-12.49-8.31-17.31-13.23-.1-.1-.39-.25-.86-.44-.22-.09-.42-.22-.61-.39-.16-.15-.42-.14-.57.02-.06.07-.1.15-.11.24-.03.58.04,1.22.22,1.91-.77-1.19-1.12-2.05-1.05-2.59.1-.82.85-1.41,1.67-1.32,18.77,2.02,33.75,3.38,44.95,4.07,6.29.38,12.02.3,17.19-.26,5.64-.6,8.83-3.73,9.55-9.38.65-5.1.92-10.33.81-15.69-.01-.41.31-.76.72-.77.18,0,.35.05.49.16,17.55,13.21,31.71,23.6,42.48,31.19,6.52,4.6,11.45,7.65,14.77,9.16,2.17.99,3.98.39,5.43-1.78.3-.47.93-.59,1.4-.28.1.07.19.15.26.24l40.24,54.48c.24.32.24.75,0,1.07l-31.06,41.96Z"/>
  <path class="cls-4" d="M387.45,320.84c3.45-3.1,6.25-6.5,8.41-10.22.5-.85,1.54-1.22,2.47-.86,9.89,3.78,19.42,8.58,29.63,11.62,6.49,1.92,13.04,3.07,19.49,5.17-10.75,14.59-21.53,29.17-32.34,43.72-.42.57-.54,1.08-.35,1.54.18.45.52.91,1.02,1.37-.62.13-1.13.43-1.52.89-.18.21-.28.47-.3.75-.13,1.72-.56,5.2-1.3,10.45-1.3,9.29-1.81,18.6-1.52,27.95.04,1.28-.51,2.51-1.49,3.35l-18.11,15.33-8.02-11c-.4-.55-1.16-.68-1.72-.28-.1.07-.2.17-.27.27l-18.79,25.08c.05-3.91-.71-8.05-.73-11.53-.25-45.76-.87-91.75-1.84-137.97l21.81,29.67c.31.43.91.52,1.33.21.08-.06.15-.13.21-.21l3.91-5.3Z"/>
  <path class="cls-2" d="M238.53,368.81l-4.08-2.3c-.34-.18-.76-.05-.94.29-.13.24-.1.53.06.75,2.22,2.74,5.06,5.49,8.53,8.24,4.4,3.49,10.2,7.98,17.41,13.48.66.5.78,1.43.28,2.09-.04.05-.08.1-.13.15-.48.48-1.28.92-2.41,1.31-15.73,5.51-31.35,8.28-48.13,9.72t0,0c8.77,1.52,17.51,1.47,26.19-.13,12.55-2.32,22.02-4.45,28.42-6.38,1.67-.51,3.28-.06,4.8,1.36,7.41,6.92,14.82,13.15,22.25,18.7.43.32.68.82.68,1.35v.56c0,.45.37.81.81.81.09,0,.18-.02.27-.05l1.61-.56-51.94,70.58c-.07.1-.21.13-.31.07l-.27-.2c-.18-.13-.24-.37-.13-.56,2.94-5.31,4.16-10.98,3.65-16.99-.46-5.39-8.02-10.58-13.83-14.57-12.25-8.41-33.17-22.47-62.75-42.18-6.14-4.1-12.09-8.25-17.86-12.44-.32-.23-.39-.67-.15-.99.08-.1.18-.19.3-.24,4.24-1.81,8.86-4,13.86-6.57,5.8-2.97,9.42-6.65,10.86-11.03.1-.3.16-.6.2-.9.46-4.76.15-9.2-.93-13.32-1.88-7.2-4.28-14.39-7.22-21.57-5.91-14.49-12.11-28.84-18.6-43.07-.18-.69-.26-1.33-.22-1.91.02-.22.22-.39.44-.37.09,0,.17.05.24.11.19.17.4.31.61.39.47.19.76.34.86.44,4.81,4.92,11.87,9.01,17.31,13.23,12,9.26,23.41,17.78,34.21,25.55,1.32.95,2.39,2,3.21,3.14.09.11.19.21.3.29l12.7,8.54c.39.27.93.17,1.2-.22.12-.17.17-.37.15-.57-1.33-13.1-5.06-25.39-11.2-36.86-.09-.15-.04-.35.12-.44h.01c.21-.13.48-.07.61.14,0,0,0,0,0,0,5.17,8.47,8.23,14.16,9.18,17.09,1.07,3.31,2.24,6.42,3.49,9.3.7,1.62,1.78,6.73,3.24,15.33.1.61.42,1.16.9,1.54l12.13,9.9Z"/>
  <path class="cls-4" d="M496.72,314.76l11.04,1.41M507.76,316.19c-6.86,2.72-10.26,7-14.39,14.18l2.51-5.73c.12-.25.01-.54-.24-.66-.21-.1-.46-.04-.6.14-1.18,1.38-2.17,3.02-2.98,4.93-.68,1.59-1.4,3.15-2.16,4.68-4.1,8.27-6.56,17-7.38,26.21-.1,1.16-.7,2.22-1.65,2.9-11.09,8.01-21.42,15.57-30.98,22.7-1.12.83-1.57,1.75-1.35,2.77,0,.2,0,.37-.05.5-.03.08-.12.12-.2.09-.03-.01-.06-.03-.07-.06l-7.67-11.23c-.08-.11-.18-.21-.29-.3-1.96-1.6-3.2-3.25-3.72-4.96-.21-.73-.08-1.51.37-2.12l44.99-61.97c.4-.54,1.16-.66,1.7-.26.21.16.37.38.44.63,1.73,5.89,7.69,5.72,12.66,6.12l11.04,1.43Z"/>
  <path class="cls-8" d="M550.56,312.14c-.34-.44-.78-.64-1.33-.61-.19,0-.37.07-.52.18-5.11,3.66-10.08,7.67-14.91,12.01-9.41,8.45-20.93,14.73-31.06,22.74l-15.31,11.34c-.21.16-.5.12-.66-.08-.07-.09-.1-.2-.1-.31.34-9.51,2.58-18.52,6.71-27.04,4.13-7.18,7.54-11.46,14.39-14.18M507.76,316.17l-11.04-1.41c11.38.07,19.94-.28,25.68-1.05,9.18-1.24,18.37-2.37,27.59-3.39.31-.03.61.12.76.38.33.54.27,1.02-.2,1.44l-42.79,4.03Z"/>
  <path class="cls-6" d="M550.56,312.14c-.59,2-1.14,3.53-1.65,4.59-7.06,14.83-12.91,28.49-17.57,40.99-2.64,7.11-4.24,12.61-4.8,16.51-1.45,9.98,6.18,15.03,13.93,18.91-13.14,5.84-26.38,8.78-39.75,8.83-14.66.05-29.56-2.79-44.71-8.52-.07-.03-.14-.06-.2-.1l-2.73-1.79c-.24-.16-.57-.09-.72.15-.06.08-.09.18-.09.28v1.98l-2.87-3.9c7.02-4.4,13.74-9.39,20.15-14.99,3.08-2.7,6.35-5.39,9.8-8.07,8.37-6.49,15.5-12.74,24.13-19.66.19-.16.22-.45.07-.64-.07-.09-.17-.14-.28-.16l-.55-.08c10.13-8.01,21.65-14.29,31.06-22.74,4.83-4.34,9.8-8.35,14.91-12.01.15-.11.34-.17.52-.18.55-.03.99.18,1.33.61Z"/>
  <path class="cls-7" d="M493.37,330.37c-4.13,8.52-6.37,17.54-6.71,27.04-.01.26.19.48.45.49.11,0,.22-.03.31-.1l15.31-11.34.55.08c.24.03.41.26.37.51-.02.11-.08.21-.16.29-8.62,6.92-15.75,13.17-24.13,19.66-3.45,2.68-6.72,5.37-9.8,8.07-6.41,5.6-13.13,10.6-20.15,14.99-.64-.93-.92-1.52-.86-1.75-.22-1.02.23-1.95,1.35-2.77,9.56-7.13,19.89-14.69,30.98-22.7.95-.68,1.55-1.74,1.65-2.9.82-9.2,3.28-17.94,7.38-26.21.76-1.54,1.48-3.1,2.16-4.68.81-1.91,1.81-3.55,2.98-4.93.17-.21.48-.25.7-.08.18.14.24.39.14.6l-2.51,5.73Z"/>
  <path class="cls-7" d="M296.88,414.43l-2.72,3.74-1.61.56c-.41.15-.87-.07-1.02-.49-.03-.09-.05-.18-.05-.27v-.56c0-.53-.25-1.03-.68-1.35-7.43-5.55-14.85-11.78-22.25-18.7-1.53-1.42-3.13-1.88-4.8-1.36-6.39,1.94-15.87,4.06-28.42,6.38-8.69,1.6-17.42,1.65-26.19.13t0,0c16.79-1.44,32.41-4.21,48.13-9.72,1.13-.39,1.93-.83,2.41-1.31.58-.59.58-1.53,0-2.11-.05-.05-.1-.09-.15-.13-7.21-5.49-13.02-9.99-17.41-13.48-3.47-2.76-6.31-5.5-8.53-8.24-.23-.3-.18-.74.13-.97.22-.17.51-.19.75-.06l4.08,2.3,49.06,36.91c.27.21.65.17.86-.1.07-.09.12-.2.13-.32,1.23-9.7,1.28-19.09.16-28.17-1.63-13.25-5.47-26.51-11.51-39.77-.04-.08,0-.17.08-.21,0,0,0,0,0,0,.08-.04.17,0,.22.07,0,0,0,0,0,0,11.75,22.86,17.56,47.19,17.43,72.98,0,.87.63,2.28,1.92,4.23Z"/>
  <path class="cls-6" d="M317.22,428.89c-2.65-2.5-5.06-3.59-7.23-3.26l39.41-53.22c-.42,1.03-1.02,2.9-1.79,5.6-1.22,4.25-6.57,12.22-10.57,17.26-4.06,5.11-9.38,12.03-15.96,20.75-3.15,4.18-4.43,8.47-3.85,12.87Z"/>
  <path class="cls-7" d="M415.79,373.19c.62.47,1.09.96,1.41,1.48-.03,3.36-.2,6.68-.48,9.97-.75,8.67-.1,15.9.44,23.9.04.58.54,1.03,1.13.99.22-.01.42-.09.59-.23l14.64-11.59,1.3,1.62c-.26,1.72-1.08,3.59-2.45,5.61-.32.47-.74.86-1.24,1.13l-2.85,1.56c-.38.21-.74.46-1.07.76l-24.5,21.5c-.09.08-.17.16-.24.25-2.14,2.68-4.56,4.86-7.27,6.54l-3.64-4.76,18.11-15.33c.98-.84,1.53-2.07,1.49-3.35-.29-9.34.22-18.66,1.52-27.95.73-5.25,1.16-8.74,1.3-10.45.02-.27.12-.53.3-.75.39-.46.9-.76,1.52-.89Z"/>
  <path class="cls-4" d="M417.2,374.67l16.33,23.04-14.64,11.59c-.47.36-1.14.29-1.5-.17-.13-.17-.21-.37-.22-.59-.55-8.01-1.19-15.23-.44-23.9.29-3.29.45-6.61.48-9.97Z"/>
  <path class="cls-5" d="M540.47,393.14l11.13,5.1c.37.17.54.61.37.98-.06.12-.14.23-.25.3l-61.74,43.27c-.61.44-1.47.3-1.92-.31l-35.78-48.51v-1.98c0-.29.24-.52.53-.52.1,0,.2.03.28.09l2.73,1.79c.06.04.13.08.2.1,15.14,5.73,30.04,8.57,44.71,8.52,13.36-.05,26.61-3,39.75-8.83Z"/>
  <path class="cls-1" d="M395.2,436.67c2.71-1.68,5.14-3.86,7.27-6.54.07-.09.15-.17.24-.25l24.5-21.5c.33-.3.69-.55,1.07-.76l2.85-1.56c.5-.27.92-.65,1.24-1.13,1.37-2.02,2.18-3.89,2.45-5.61l79.43,107.56c.15.21.1.49-.1.64-.07.05-.16.08-.26.08h-65.81c-.49,0-.94-.23-1.22-.61l-51.68-70.32Z"/>
  <path class="cls-2" d="M308.94,427.46l-.31,2.53c-.05.42.11.83.43,1.09,2.62,2.15,4.12,3.44,4.51,3.89,6.8,7.71,14.61,14.81,23.43,21.29,2.03,1.5,4.85,4.2,6.23,5.63.28.29.39.71.29,1.1-.42,1.68-1.28,2.57-2.58,2.66-18.11,1.29-34.95,1.7-50.53,1.23-7.52-.22-11.38,3.7-16.5,7.8l35.02-47.19Z"/>
  <path class="cls-7" d="M418.83,497.1c.18.25.12.61-.14.78-.15.1-.34.13-.51.07-3.04-1.19-8.57-3.18-16.56-5.98-12.75-4.47-25.18-9.54-37.27-15.22-.42-.2-.93-.02-1.13.4-.06.12-.09.26-.08.4,1.05,33.69,2.8,68.39,5.27,104.09.03.43-.29.79-.72.82-.02,0-.04,0-.05,0h-19.48c-.3,0-.55-.24-.55-.55,0-.01,0-.03,0-.04l4.46-92.48c0-.17.07-.34.17-.47l29.42-40.03c.31-.43.92-.53,1.35-.22.08.06.16.13.22.22l35.61,48.21Z"/>
</svg>